<?xml version="1.0" encoding="UTF-8"?>
<!-- Generator: visioncortex VTracer 0.6.1 -->
<svg version="1.1" xmlns="http://www.w3.org/2000/svg" width="1280" height="1280">
<path d="M0 0 C95.37 0.33 190.74 0.66 289 1 C289 65.35 289 129.7 289 196 C268.31712426 197.14904865 268.31712426 197.14904865 261.64920044 197.15390015 C260.46655194 197.16047353 260.46655194 197.16047353 259.26001155 197.1671797 C256.69954243 197.18020471 254.13910721 197.18666093 251.57861328 197.19287109 C249.71054951 197.20079917 247.84248716 197.20906963 245.97442627 197.21765137 C239.92306916 197.24349608 233.87170626 197.25911157 227.8203125 197.2734375 C225.72466912 197.27880726 223.62902576 197.28418477 221.53338242 197.28956985 C212.82563178 197.31111727 204.11788277 197.32985999 195.41011238 197.34119225 C182.97172181 197.35749758 170.53363992 197.39092655 158.09536564 197.44759309 C149.3170935 197.48622004 140.53890435 197.5058146 131.76054943 197.51111281 C126.52688171 197.51476775 121.29354622 197.52681061 116.05997086 197.55921555 C111.15296733 197.58917889 106.24649951 197.5956503 101.33942413 197.58383179 C99.53822968 197.58361027 97.73701103 197.59197977 95.93590164 197.60948563 C93.48095816 197.63205472 91.0279797 197.62394236 88.57302856 197.60800171 C87.85767791 197.6218838 87.14232725 197.63576588 86.40529931 197.65006864 C82.70182066 197.59062969 81.27481911 197.2697248 78.58918571 194.63387489 C76.86925557 191.7833076 75.97878453 189.18104973 75 186 C73.9333895 183.63508085 72.832119 181.29076315 71.70703125 178.953125 C71.35705078 177.98632812 71.35705078 177.98632812 71 177 C71.33 176.34 71.66 175.68 72 175 C71.34 175 70.68 175 70 175 C69.505 171.535 69.505 171.535 69 168 C68.34 168 67.68 168 67 168 C66.35242375 166.56328432 65.70700547 165.12559584 65.0625 163.6875 C64.52302734 162.48673828 64.52302734 162.48673828 63.97265625 161.26171875 C63 159 63 159 62 156 C61.62875 154.989375 61.2575 153.97875 60.875 152.9375 C60 150 60 150 61 148 C60.34 148 59.68 148 59 148 C55.57142857 140.71428571 55.57142857 140.71428571 56 136 C55.34 136 54.68 136 54 136 C53.68546875 135.23816406 53.3709375 134.47632813 53.046875 133.69140625 C51.01234635 128.78279947 48.96855853 123.8911274 46.75 119.0625 C45.38412829 116.04119177 44.57792709 113.27492015 44 110 C43.34 109.01 42.68 108.02 42 107 C41.34336833 105.47153804 40.72151484 103.92791054 40.125 102.375 C38.82209559 99.0453554 37.47254964 95.75816101 36 92.5 C33.84953352 87.72494845 31.91955022 82.87146358 30 78 C29.61070312 77.11828125 29.22140625 76.2365625 28.8203125 75.328125 C28.54960938 74.55984375 28.27890625 73.7915625 28 73 C28.33 72.34 28.66 71.68 29 71 C28.34 71 27.68 71 27 71 C26.74605469 70.28714844 26.49210938 69.57429688 26.23046875 68.83984375 C23.91633018 62.40012481 21.49714553 56.09672734 18.515625 49.9296875 C17.97421875 48.79789062 17.4328125 47.66609375 16.875 46.5 C16.35679687 45.4378125 15.83859375 44.375625 15.3046875 43.28125 C13.92858566 39.82039506 13.38237988 36.69323005 13 33 C12.34 33 11.68 33 11 33 C10.30329584 31.21189234 9.61788811 29.41937948 8.9375 27.625 C8.55464844 26.62726563 8.17179688 25.62953125 7.77734375 24.6015625 C7 22 7 22 8 20 C7.34 20 6.68 20 6 20 C5.5875 18.845 5.175 17.69 4.75 16.5 C3.36748928 12.75126901 1.64934985 9.32712076 -0.328125 5.859375 C-1 4 -1 4 0 0 Z " fill="#B94E3C" transform="translate(640,439)"/>
<path d="M0 0 C0.89886429 0.02009628 1.79772858 0.04019257 2.72383118 0.06089783 C4.1892762 0.10145042 4.1892762 0.10145042 5.68432617 0.14282227 C6.69387863 0.16643326 7.70343109 0.19004425 8.74357605 0.21437073 C11.98828912 0.29109056 15.23277269 0.37485219 18.47729492 0.45922852 C21.67581786 0.53861849 24.87436857 0.61651431 28.07296753 0.69277954 C30.13513838 0.74251695 32.19725516 0.79455263 34.25930786 0.84896851 C40.64616115 1.00940264 46.99348443 1.01558561 53.37841797 0.74853516 C55.66479492 1.02172852 55.66479492 1.02172852 57.28739929 2.14466858 C59.29517291 4.88078255 59.01787471 6.95819494 58.98950195 10.32788086 C58.98604767 11.63550385 58.98259338 12.94312683 58.97903442 14.29037476 C58.96034081 15.72947335 58.94152835 17.1685704 58.92260742 18.60766602 C58.91445061 20.10331504 58.90779491 21.59897292 58.90255737 23.09463501 C58.88539206 27.05882038 58.85122017 31.0226675 58.8125 34.98669434 C58.74656653 41.985213 58.70876977 48.98394115 58.67260742 55.98266602 C58.66809822 56.74088402 58.66358902 57.49910202 58.65894318 58.28029633 C58.5764806 73.21438287 58.99240616 88.10204994 59.66479492 103.02172852 C61.56273598 103.18831958 63.46089085 103.35247573 65.35913086 103.515625 C66.41614197 103.60730453 67.47315308 103.69898407 68.56219482 103.79344177 C72.68753409 104.09698082 76.78097554 104.13299408 80.91479492 104.08422852 C82.04981445 104.07746094 82.04981445 104.07746094 83.20776367 104.07055664 C85.02681047 104.05904369 86.84581511 104.04112522 88.66479492 104.02172852 C88.66479492 102.04172852 88.66479492 100.06172852 88.66479492 98.02172852 C88.33479492 98.02172852 88.00479492 98.02172852 87.66479492 98.02172852 C87.5722171 86.07829702 87.50109199 74.13495052 87.45754623 62.19123363 C87.43664907 56.64558957 87.40829238 51.10019053 87.36303711 45.5546875 C87.3196556 40.20546871 87.29567387 34.85648596 87.28528595 29.50710487 C87.27788075 27.46367996 87.26342055 25.42026833 87.24187469 23.37694359 C87.2129431 20.52021487 87.20883463 17.66446823 87.21069336 14.80761719 C87.19631226 13.95813507 87.18193115 13.10865295 87.16711426 12.23342896 C87.20739948 6.53185219 87.20739948 6.53185219 89.48175049 3.99531555 C92.64073743 2.58648086 95.34800557 2.66252365 98.78979492 2.70922852 C100.02987305 2.7130957 101.26995117 2.71696289 102.54760742 2.72094727 C105.66479492 3.02172852 105.66479492 3.02172852 107.66479492 5.02172852 C107.87738069 7.87565867 107.96575272 10.63500238 107.96777344 13.49121094 C107.97621277 14.36783386 107.9846521 15.24445679 107.99334717 16.14764404 C108.01922039 19.0575004 108.03129165 21.967255 108.04370117 24.87719727 C108.05987253 26.8978201 108.07705213 28.91843509 108.09519958 30.93904114 C108.1409839 36.27105064 108.17572629 41.60307069 108.20739746 46.93518066 C108.25916004 55.45250706 108.32463038 63.9697168 108.39561272 72.48690224 C108.41837637 75.4597791 108.43469824 78.43264154 108.45033264 81.40556335 C108.46374946 83.23880159 108.47736513 85.07203839 108.49121094 86.90527344 C108.49382431 87.72788162 108.49643768 88.55048981 108.49913025 89.39802551 C108.54056008 94.03689615 108.90069848 98.4444674 109.66479492 103.02172852 C112.72634113 103.9025446 115.54390169 104.21411054 118.72729492 104.27172852 C119.58452148 104.29750977 120.44174805 104.32329102 121.32495117 104.34985352 C124.14165638 103.95485646 124.94261658 103.23212563 126.66479492 101.02172852 C128.28132964 97.78865907 127.77585071 94.25407748 127.74658203 90.70410156 C127.74351547 89.84377319 127.74044891 88.98344482 127.73728943 88.0970459 C127.73012466 86.22490708 127.72072966 84.35277579 127.70939445 82.48065758 C127.69204638 79.51768369 127.68171807 76.55476344 127.67347717 73.5917511 C127.64898822 65.16577064 127.61348284 56.7398622 127.56884766 48.31396484 C127.54205666 43.1634602 127.5250179 38.01299761 127.51397896 32.86243629 C127.50777021 30.89883688 127.49776619 28.93524568 127.48390007 26.97168541 C127.46467205 24.22358252 127.45778588 21.47570019 127.45361328 18.72753906 C127.44485168 17.9164418 127.43609009 17.10534454 127.42706299 16.26966858 C127.43428161 12.10265682 127.63176858 8.71252666 129.66479492 5.02172852 C132.44591129 3.63117033 134.68889907 4.00149 137.78979492 4.08422852 C143.84775948 4.13789819 149.1609314 3.77366028 154.66479492 1.02172852 C157.57361501 0.86970978 160.44246165 0.79024774 163.35229492 0.77172852 C164.53855469 0.74079102 164.53855469 0.74079102 165.7487793 0.70922852 C173.6580704 0.65697886 179.38533317 3.2738428 185.66479492 8.02172852 C185.66479492 8.68172852 185.66479492 9.34172852 185.66479492 10.02172852 C186.32479492 10.02172852 186.98479492 10.02172852 187.66479492 10.02172852 C192.54100082 17.73658284 193.30169626 23.99188284 192.66479492 33.02172852 C190.4595122 33.69841801 188.25040883 34.3626635 186.03979492 35.02172852 C184.8100293 35.39297852 183.58026367 35.76422852 182.31323242 36.14672852 C178.92632666 36.9590057 176.12625063 37.19213864 172.66479492 37.02172852 C170.92551522 33.54316912 170.75225158 29.59019679 170.16479492 25.77172852 C169.80646159 23.07172852 169.80646159 23.07172852 168.66479492 21.02172852 C164.37373683 19.92401598 160.97267636 20.09861106 156.66479492 21.02172852 C154.76753904 26.00202521 153.48326688 30.02119683 155.50463867 35.15454102 C158.66777694 41.43821636 163.28463157 46.83164684 169.66479492 50.02172852 C169.66479492 50.68172852 169.66479492 51.34172852 169.66479492 52.02172852 C170.22682617 52.27825195 170.78885742 52.53477539 171.36791992 52.79907227 C182.08025089 58.5013845 191.92833631 68.35879411 195.66479492 80.02172852 C197.88355898 90.00616676 197.03654732 99.56529143 193.53979492 109.08422852 C189.27709859 115.76245277 183.39899695 120.11853107 175.66479492 122.02172852 C171.82116098 122.42896608 168.02680659 122.44181036 164.16479492 122.39672852 C163.17092773 122.40833008 162.17706055 122.41993164 161.15307617 122.43188477 C154.9013912 122.40710926 150.3979547 121.47701651 144.66479492 119.02172852 C141.13603787 117.94932319 141.13603787 117.94932319 137.69213867 118.79907227 C137.00249023 119.18192383 136.3128418 119.56477539 135.60229492 119.95922852 C126.41944367 123.92235379 113.14223452 123.81651986 103.78979492 120.33422852 C98.5742287 117.7402432 94.76698828 114.12392187 90.66479492 110.02172852 C90.16979492 115.96172852 90.16979492 115.96172852 89.66479492 122.02172852 C82.72307378 122.07105746 75.781454 122.10741426 68.83959961 122.1315918 C66.47662581 122.14166775 64.11366453 122.15532881 61.75073242 122.17260742 C58.36007604 122.19678576 54.96958408 122.2081955 51.57885742 122.21704102 C50.51736481 122.22736359 49.45587219 122.23768616 48.36221313 122.24832153 C47.38134735 122.2484726 46.40048157 122.24862366 45.38989258 122.2487793 C44.52385406 122.25322052 43.65781555 122.25766174 42.76553345 122.26223755 C40.66479492 122.02172852 40.66479492 122.02172852 38.66479492 120.02172852 C38.42428589 117.80709839 38.42428589 117.80709839 38.43774414 115.02124023 C38.4378952 113.98031219 38.43804626 112.93938416 38.4382019 111.86691284 C38.45368576 110.17624191 38.45368576 110.17624191 38.46948242 108.45141602 C38.47231232 107.30005157 38.47514221 106.14868713 38.47805786 104.96243286 C38.48928084 101.27376039 38.51438936 97.58532798 38.53979492 93.89672852 C38.54982198 91.40063826 38.5589483 88.90454422 38.56713867 86.40844727 C38.58922708 80.27945868 38.62272545 74.15061074 38.66479492 68.02172852 C35.69479492 68.51672852 35.69479492 68.51672852 32.66479492 69.02172852 C26.72479492 69.35172852 20.78479492 69.68172852 14.66479492 70.02172852 C14.66479492 87.18172852 14.66479492 104.34172852 14.66479492 122.02172852 C10.67369173 124.01728011 8.96492927 124.21718917 4.66479492 124.02172852 C4.66479492 123.36172852 4.66479492 122.70172852 4.66479492 122.02172852 C3.67479492 122.02172852 2.68479492 122.02172852 1.66479492 122.02172852 C1.66479492 122.68172852 1.66479492 123.34172852 1.66479492 124.02172852 C0.38604492 124.08360352 -0.89270508 124.14547852 -2.21020508 124.20922852 C-3.28915039 124.26143555 -3.28915039 124.26143555 -4.38989258 124.31469727 C-5.0318457 124.21801758 -5.67379883 124.12133789 -6.33520508 124.02172852 C-8.47127617 120.81762188 -8.58586511 120.00768002 -8.58917236 116.32876587 C-8.59481201 115.36423996 -8.60045166 114.39971405 -8.60626221 113.40596008 C-8.60221375 112.3492662 -8.59816528 111.29257233 -8.59399414 110.20385742 C-8.59749878 109.08979019 -8.60100342 107.97572296 -8.60461426 106.82789612 C-8.6134371 103.13463155 -8.60757956 99.44155763 -8.60083008 95.74829102 C-8.60217676 93.18622806 -8.60411731 90.62416535 -8.60662842 88.06210327 C-8.60958059 82.68696429 -8.60546994 77.31189724 -8.59594727 71.93676758 C-8.58507373 65.7275446 -8.58858019 59.51845307 -8.59960008 53.30923331 C-8.60978127 47.33288043 -8.60868837 41.3565917 -8.60283661 35.38022995 C-8.60150152 32.83889116 -8.60314289 30.29754902 -8.60779572 27.75621414 C-8.61287143 24.20351518 -8.60513513 20.65106881 -8.59399414 17.09838867 C-8.60006683 15.51942055 -8.60006683 15.51942055 -8.60626221 13.90855408 C-8.60062256 12.93838852 -8.59498291 11.96822296 -8.58917236 10.96865845 C-8.58841831 10.12911432 -8.58766426 9.2895702 -8.58688736 8.42458534 C-8.29549801 5.64263788 -7.56846306 3.52723141 -6.33520508 1.02172852 C-3.96437845 -0.1636848 -2.6390414 -0.06665323 0 0 Z M14.66479492 20.02172852 C14.99479492 29.59172852 15.32479492 39.16172852 15.66479492 49.02172852 C19.95479492 49.35172852 24.24479492 49.68172852 28.66479492 50.02172852 C30.86202597 48.25653099 30.86202597 48.25653099 30.82495117 46.03344727 C30.79272461 45.26645508 30.76049805 44.49946289 30.72729492 43.70922852 C30.64549718 40.27917652 30.99189264 37.38623994 31.66479492 34.02172852 C32.14534577 27.21637703 32.14534577 27.21637703 29.66479492 21.02172852 C23.92988239 17.45333849 20.68948791 17.00938202 14.66479492 20.02172852 Z M128.66479492 18.02172852 C128.66479492 25.28172852 128.66479492 32.54172852 128.66479492 40.02172852 C128.99479492 40.02172852 129.32479492 40.02172852 129.66479492 40.02172852 C129.66479492 32.76172852 129.66479492 25.50172852 129.66479492 18.02172852 C129.33479492 18.02172852 129.00479492 18.02172852 128.66479492 18.02172852 Z M13.66479492 29.02172852 C13.66479492 35.62172852 13.66479492 42.22172852 13.66479492 49.02172852 C13.99479492 49.02172852 14.32479492 49.02172852 14.66479492 49.02172852 C14.66479492 42.42172852 14.66479492 35.82172852 14.66479492 29.02172852 C14.33479492 29.02172852 14.00479492 29.02172852 13.66479492 29.02172852 Z M172.66479492 29.02172852 C173.66479492 33.02172852 173.66479492 33.02172852 173.66479492 33.02172852 Z M30.66479492 39.02172852 C30.66479492 40.67172852 30.66479492 42.32172852 30.66479492 44.02172852 C30.99479492 44.02172852 31.32479492 44.02172852 31.66479492 44.02172852 C31.66479492 42.37172852 31.66479492 40.72172852 31.66479492 39.02172852 C31.33479492 39.02172852 31.00479492 39.02172852 30.66479492 39.02172852 Z M16.66479492 50.02172852 C16.66479492 50.35172852 16.66479492 50.68172852 16.66479492 51.02172852 C19.30479492 51.02172852 21.94479492 51.02172852 24.66479492 51.02172852 C24.66479492 50.69172852 24.66479492 50.36172852 24.66479492 50.02172852 C22.02479492 50.02172852 19.38479492 50.02172852 16.66479492 50.02172852 Z M149.66479492 63.02172852 C148.31647388 65.71837059 148.49568811 67.88760373 148.47729492 70.89672852 C148.46311523 71.94602539 148.44893555 72.99532227 148.43432617 74.07641602 C148.65974555 76.95719923 149.17515175 78.5841306 150.66479492 81.02172852 C151.32479492 81.02172852 151.98479492 81.02172852 152.66479492 81.02172852 C152.5694043 81.65079102 152.47401367 82.27985352 152.37573242 82.92797852 C151.60416735 88.8851786 151.46602631 93.38140902 153.66479492 99.02172852 C155.97002628 101.60307393 158.55844834 103.46855522 161.66479492 105.02172852 C164.01644394 104.8520134 164.01644394 104.8520134 166.60229492 104.33422852 C167.47756836 104.18598633 168.3528418 104.03774414 169.25463867 103.88500977 C172.29187284 102.79711876 173.15999971 101.86251178 174.66479492 99.02172852 C176.0138725 91.30374982 175.07259199 84.77132092 170.64135742 78.30297852 C167.12479098 74.24433266 162.97591414 71.18321595 158.66479492 68.02172852 C157.51060259 67.03138812 156.36319816 66.03299399 155.22729492 65.02172852 C152.81240385 62.71409309 152.81240385 62.71409309 149.66479492 63.02172852 Z M39.66479492 69.02172852 C40.66479492 72.02172852 40.66479492 72.02172852 40.66479492 72.02172852 Z M39.66479492 75.02172852 C40.66479492 79.02172852 40.66479492 79.02172852 40.66479492 79.02172852 Z M39.66479492 81.02172852 C39.66479492 91.25172852 39.66479492 101.48172852 39.66479492 112.02172852 C39.99479492 112.02172852 40.32479492 112.02172852 40.66479492 112.02172852 C40.66479492 101.79172852 40.66479492 91.56172852 40.66479492 81.02172852 C40.33479492 81.02172852 40.00479492 81.02172852 39.66479492 81.02172852 Z M128.66479492 88.02172852 C129.66479492 90.02172852 129.66479492 90.02172852 129.66479492 90.02172852 Z M175.66479492 89.02172852 C175.66479492 91.66172852 175.66479492 94.30172852 175.66479492 97.02172852 C175.99479492 97.02172852 176.32479492 97.02172852 176.66479492 97.02172852 C176.66479492 94.38172852 176.66479492 91.74172852 176.66479492 89.02172852 C176.33479492 89.02172852 176.00479492 89.02172852 175.66479492 89.02172852 Z M139.66479492 115.02172852 C140.66479492 117.02172852 140.66479492 117.02172852 140.66479492 117.02172852 Z " fill="#B84D3B" transform="translate(474.335205078125,651.978271484375)"/>
<path d="M0 0 C1.51830386 0.04233866 3.0364555 0.09036263 4.55444336 0.14282227 C5.75090736 0.17823875 5.75090736 0.17823875 6.97154236 0.21437073 C9.52929684 0.29119112 12.08676238 0.37513567 14.64428711 0.45922852 C16.37409049 0.51243084 18.10390814 0.56517135 19.83374023 0.61743164 C24.08327355 0.74683094 28.33256093 0.88262164 32.58178711 1.02172852 C35.826196 7.9622297 38.47118506 15.05064978 41.01928711 22.27172852 C44.37989865 31.70549429 47.77132121 41.11503702 51.54663086 50.39282227 C53.03691096 54.13569164 53.71219631 57.01336163 53.58178711 61.02172852 C49.2219425 61.14536079 44.86302655 61.23607759 40.50195312 61.29638672 C39.01869943 61.32152661 37.53556958 61.35564444 36.05273438 61.39892578 C33.92018116 61.45961109 31.78926506 61.48793967 29.65600586 61.51000977 C27.73147583 61.54928589 27.73147583 61.54928589 25.76806641 61.58935547 C22.58178711 61.02172852 22.58178711 61.02172852 20.67480469 58.71777344 C19.37153097 55.50310922 19.02640838 52.45166403 18.58178711 49.02172852 C17.92178711 48.03172852 17.26178711 47.04172852 16.58178711 46.02172852 C16.19164995 44.03202901 15.84976062 42.03152983 15.58178711 40.02172852 C13.42147725 40.83393058 13.42147725 40.83393058 12.75976562 42.92016602 C12.49607178 43.73743164 12.23237793 44.55469727 11.96069336 45.39672852 C11.51693359 46.75217773 11.51693359 46.75217773 11.06420898 48.13500977 C10.76063477 49.08762695 10.45706055 50.04024414 10.14428711 51.02172852 C9.84458008 51.9434082 9.54487305 52.86508789 9.23608398 53.81469727 C8.34713395 56.54903816 7.46438287 59.28533121 6.58178711 62.02172852 C4.85391793 67.3678216 2.99962968 72.58352101 0.83178711 77.77172852 C-2.12182279 84.96673355 -4.58247736 92.30055894 -6.9699707 99.70043945 C-8.15536096 103.35088687 -9.36399113 106.89578944 -10.88305664 110.42407227 C-12.99738739 115.37903059 -14.62102181 120.46604367 -16.29321289 125.58422852 C-23.38302543 147.05799285 -23.38302543 147.05799285 -27.23852539 156.46704102 C-30.21750356 163.87141352 -32.68495477 171.46317167 -35.21459961 179.0300293 C-35.8632629 180.96654272 -36.51913023 182.90049477 -37.17602539 184.83422852 C-37.55903809 185.97504883 -37.94205078 187.11586914 -38.33666992 188.29125977 C-39.41821289 191.02172852 -39.41821289 191.02172852 -41.41821289 193.02172852 C-44.4909668 193.2487793 -44.4909668 193.2487793 -48.39477539 193.21704102 C-49.08002289 193.21421112 -49.76527039 193.21138123 -50.47128296 193.20846558 C-52.66210316 193.19726133 -54.85251605 193.1721571 -57.04321289 193.14672852 C-58.52758199 193.13669899 -60.01195749 193.1275731 -61.49633789 193.11938477 C-65.1370955 193.09732146 -68.77761445 193.06279027 -72.41821289 193.02172852 C-73.32098451 189.50241045 -73.52806411 187.36159179 -72.19555664 183.97485352 C-71.76339844 182.84454712 -71.76339844 182.84454712 -71.32250977 181.69140625 C-71.0034668 180.8929126 -70.68442383 180.09441895 -70.35571289 179.27172852 C-69.69696881 177.55994717 -69.03943936 175.84769796 -68.38305664 174.13500977 C-68.05031738 173.27601074 -67.71757812 172.41701172 -67.37475586 171.53198242 C-65.97835552 167.86741164 -64.69771461 164.1658533 -63.41821289 160.45922852 C-61.4041035 154.67387757 -59.23987489 148.96549058 -56.98071289 143.27172852 C-54.50590268 137.02177268 -52.29557874 130.73054804 -50.23071289 124.33422852 C-47.32530819 115.36977581 -43.98598651 106.60185032 -40.54321289 97.83422852 C-36.3560408 87.16581664 -32.40497687 76.45606855 -28.71606445 65.60253906 C-25.64454286 56.58880455 -22.35786124 47.66447349 -19.02075195 38.74609375 C-16.13856688 31.02611688 -13.36342941 23.27695595 -10.74975586 15.46166992 C-5.49055367 0.03490174 -5.49055367 0.03490174 0 0 Z M-8.41821289 11.02172852 C-7.41821289 13.02172852 -7.41821289 13.02172852 -7.41821289 13.02172852 Z M-13.41821289 25.02172852 C-12.41821289 28.02172852 -12.41821289 28.02172852 -12.41821289 28.02172852 Z M-16.41821289 34.02172852 C-15.41821289 36.02172852 -15.41821289 36.02172852 -15.41821289 36.02172852 Z M-18.41821289 39.02172852 C-17.41821289 42.02172852 -17.41821289 42.02172852 -17.41821289 42.02172852 Z M-21.41821289 47.02172852 C-20.41821289 50.02172852 -20.41821289 50.02172852 -20.41821289 50.02172852 Z M-24.41821289 56.02172852 C-23.41821289 58.02172852 -23.41821289 58.02172852 -23.41821289 58.02172852 Z M-29.41821289 70.02172852 C-28.41821289 72.02172852 -28.41821289 72.02172852 -28.41821289 72.02172852 Z M-32.41821289 78.02172852 C-31.41821289 80.02172852 -31.41821289 80.02172852 -31.41821289 80.02172852 Z M-45.41821289 113.02172852 C-44.41821289 115.02172852 -44.41821289 115.02172852 -44.41821289 115.02172852 Z M-48.41821289 122.02172852 C-47.41821289 124.02172852 -47.41821289 124.02172852 -47.41821289 124.02172852 Z M-50.41821289 127.02172852 C-49.41821289 129.02172852 -49.41821289 129.02172852 -49.41821289 129.02172852 Z M-53.41821289 136.02172852 C-52.41821289 138.02172852 -52.41821289 138.02172852 -52.41821289 138.02172852 Z M-64.41821289 165.02172852 C-63.41821289 167.02172852 -63.41821289 167.02172852 -63.41821289 167.02172852 Z M-69.41821289 179.02172852 C-68.41821289 182.02172852 -68.41821289 182.02172852 -68.41821289 182.02172852 Z " fill="#B94E3C" transform="translate(540.418212890625,438.978271484375)"/>
<path d="M0 0 C1.62711914 -0.061875 1.62711914 -0.061875 3.28710938 -0.125 C11.19515954 -0.20276816 11.19515954 -0.20276816 15.109375 2.96875 C17.57848466 6.83730659 18.98905494 11.15182778 20.375 15.5 C20.96437553 17.27012167 21.55559482 19.03963027 22.1484375 20.80859375 C22.60814941 22.19280518 22.60814941 22.19280518 23.07714844 23.60498047 C25.11460727 29.59115164 27.35509805 35.50665071 29.57348633 41.42773438 C30.0611145 42.7493457 30.0611145 42.7493457 30.55859375 44.09765625 C30.84919678 44.87633057 31.1397998 45.65500488 31.43920898 46.45727539 C32.0625 48.5 32.0625 48.5 32.0625 51.5 C32.84786133 51.52505615 33.63322266 51.5501123 34.44238281 51.57592773 C38.06586428 51.69332087 41.68917468 51.81538592 45.3125 51.9375 C46.54742188 51.97681641 47.78234375 52.01613281 49.0546875 52.05664062 C54.99470259 52.25985167 60.92926529 52.50695841 66.859375 52.91015625 C67.81682617 52.97468994 68.77427734 53.03922363 69.76074219 53.10571289 C72.0625 53.5 72.0625 53.5 74.0625 55.5 C74.74357072 57.33431232 75.35972259 59.19307969 75.9375 61.0625 C77.45315903 65.79750997 79.19178262 70.27149349 81.328125 74.7578125 C82.0625 76.5 82.0625 76.5 82.0625 78.5 C78.89788385 80.08230808 75.47170633 79.74157813 71.9921875 79.81640625 C71.19595978 79.83718735 70.39973206 79.85796844 69.57937622 79.87937927 C67.03217315 79.94484149 64.48486575 80.00374415 61.9375 80.0625 C60.21222873 80.1056884 58.48696807 80.14930279 56.76171875 80.19335938 C52.52875315 80.30051945 48.29568247 80.40179623 44.0625 80.5 C45.06056785 83.375683 46.06068518 86.25062165 47.0625 89.125 C47.3706665 90.01058594 47.67883301 90.89617187 47.99633789 91.80859375 C49.72402186 96.7510055 51.48730166 101.67718918 53.30859375 106.5859375 C53.67404297 107.57384277 54.03949219 108.56174805 54.41601562 109.57958984 C55.12928142 111.50123071 55.84789124 113.42089788 56.57226562 115.33837891 C56.89775391 116.21671387 57.22324219 117.09504883 57.55859375 118 C57.99449829 119.16015625 57.99449829 119.16015625 58.43920898 120.34375 C59.0625 122.5 59.0625 122.5 59.0625 126.5 C54.86334693 126.59907258 50.66481748 126.67156173 46.46484375 126.71972656 C45.03698879 126.73980982 43.60921575 126.76708252 42.18164062 126.80175781 C40.12609632 126.85042669 38.07164145 126.87299967 36.015625 126.890625 C34.77973633 126.91157227 33.54384766 126.93251953 32.27050781 126.95410156 C28.45922635 126.4146051 27.3640612 125.51847448 25.0625 122.5 C23.76171875 119.5546875 23.76171875 119.5546875 22.75 116.375 C22.40324219 115.32054687 22.05648437 114.26609375 21.69921875 113.1796875 C21.0625 110.5 21.0625 110.5 22.0625 108.5 C21.4025 108.5 20.7425 108.5 20.0625 108.5 C19.08945296 105.58085888 18.11654785 102.66167197 17.14453125 99.7421875 C16.49929992 97.80882287 15.85171754 95.87623653 15.19921875 93.9453125 C14.94785156 93.20023438 14.69648437 92.45515625 14.4375 91.6875 C14.21835937 91.04167969 13.99921875 90.39585937 13.7734375 89.73046875 C12.79909638 86.67360732 11.93995107 83.58587479 11.0625 80.5 C10.42578873 80.50222061 9.78907745 80.50444122 9.1330719 80.50672913 C2.53134724 80.5287804 -4.07036704 80.54390593 -10.67211914 80.55493164 C-13.13892033 80.55997356 -15.60571852 80.56680691 -18.07250977 80.57543945 C-21.60954529 80.58751125 -25.14654145 80.59322956 -28.68359375 80.59765625 C-29.79399521 80.60281754 -30.90439667 80.60797882 -32.04844666 80.61329651 C-33.57992088 80.61340981 -33.57992088 80.61340981 -35.14233398 80.61352539 C-36.49801735 80.61685631 -36.49801735 80.61685631 -37.88108826 80.62025452 C-39.9375 80.5 -39.9375 80.5 -40.9375 79.5 C-40.46534309 73.85896739 -39.34120177 68.65277723 -37.6875 63.25 C-37.49542969 62.55648437 -37.30335938 61.86296875 -37.10546875 61.1484375 C-35.6587448 56.39881547 -34.10447814 54.14834771 -29.9375 51.5 C-26.70776367 51.04589844 -26.70776367 51.04589844 -23.10546875 51.109375 C-21.16704102 51.12871094 -21.16704102 51.12871094 -19.18945312 51.1484375 C-17.83462454 51.18185366 -16.47980683 51.21571338 -15.125 51.25 C-13.75067683 51.27007966 -12.37632561 51.28832787 -11.00195312 51.3046875 C-7.64642144 51.35178268 -4.29231873 51.41754865 -0.9375 51.5 C-2.30874671 44.70237079 -2.30874671 44.70237079 -4.625 38.1875 C-7.18943965 32.07155336 -9.31186289 25.8096314 -11.4753418 19.54370117 C-12.63694617 16.18705617 -13.79096786 12.85681527 -15.140625 9.5703125 C-16.08703998 7.11148927 -16.08675341 5.1119347 -15.9375 2.5 C-10.91734059 -0.45016581 -5.67394047 0.05374958 0 0 Z M-11.9375 1.5 C-11.9375 1.83 -11.9375 2.16 -11.9375 2.5 C-9.2975 2.5 -6.6575 2.5 -3.9375 2.5 C-3.9375 2.17 -3.9375 1.84 -3.9375 1.5 C-6.5775 1.5 -9.2175 1.5 -11.9375 1.5 Z M0.0625 49.5 C1.0625 52.5 1.0625 52.5 1.0625 52.5 Z M-29.9375 52.5 C-29.9375 52.83 -29.9375 53.16 -29.9375 53.5 C-20.0375 53.5 -10.1375 53.5 0.0625 53.5 C0.0625 53.17 0.0625 52.84 0.0625 52.5 C-9.8375 52.5 -19.7375 52.5 -29.9375 52.5 Z M-34.9375 57.5 C-33.9375 59.5 -33.9375 59.5 -33.9375 59.5 Z " fill="#B94E3C" transform="translate(582.9375,505.5)"/>
<path d="M0 0 C4.06225821 -0.11638426 8.1240863 -0.18731373 12.1875 -0.25 C13.33798828 -0.28351562 14.48847656 -0.31703125 15.67382812 -0.3515625 C16.78564453 -0.36445312 17.89746094 -0.37734375 19.04296875 -0.390625 C20.06414795 -0.41157227 21.08532715 -0.43251953 22.13745117 -0.45410156 C25.76711241 0.12169118 27.37588218 1.47857002 30 4 C33.90755122 10.15503167 33.42547649 16.67596172 33.33618164 23.79614258 C33.31268316 25.79690515 33.31736387 27.79793357 33.32226562 29.79882812 C33.22257168 47.93406254 33.22257168 47.93406254 29.13671875 53.5703125 C24.16199068 55.83774771 19.22047268 55.76027577 13.8125 55.875 C12.15444336 55.94460938 12.15444336 55.94460938 10.46289062 56.015625 C4.4478231 56.2069299 4.4478231 56.2069299 2 56 C0 54 0 54 -0.24050903 51.70944214 C-0.23606781 50.75457916 -0.23162659 49.79971619 -0.22705078 48.81591797 C-0.22689972 47.73494843 -0.22674866 46.65397888 -0.22659302 45.54025269 C-0.21627045 44.36939117 -0.20594788 43.19852966 -0.1953125 41.9921875 C-0.1924826 40.79643097 -0.18965271 39.60067444 -0.18673706 38.36868286 C-0.17551305 34.53735481 -0.15040431 30.70625778 -0.125 26.875 C-0.11497308 24.28255545 -0.10584673 21.69010725 -0.09765625 19.09765625 C-0.07556646 12.73169158 -0.04206706 6.36586229 0 0 Z M13 10 C12.64208017 12.74894162 12.44205233 15.30617019 12.375 18.0625 C12.10418532 25.89581468 12.10418532 25.89581468 11 27 C10.87317377 29.47163686 10.81479749 31.90290611 10.8125 34.375 C10.80025391 35.06078125 10.78800781 35.7465625 10.77539062 36.453125 C10.76447669 40.19296797 10.8733158 41.8099737 13 45 C16.81813447 44.72459296 16.81813447 44.72459296 20 43 C20.88511239 36.60044638 21.23919142 30.268542 21.3125 23.8125 C21.34150391 22.94947266 21.37050781 22.08644531 21.40039062 21.19726562 C21.45716376 15.48938179 20.74516239 12.37532356 17 8 C15.53774984 7.90754997 15.53774984 7.90754997 13 10 Z " fill="#B84D3B" transform="translate(579,788)"/>
<path d="M0 0 C1.21429687 -0.02578125 2.42859375 -0.0515625 3.6796875 -0.078125 C7.48597736 0.2843788 9.16608822 0.86281016 12.125 3.25 C16.20764866 8.2218217 16.70966122 11.77692018 16.62109375 17.9375 C16.62254898 18.75822998 16.62400421 19.57895996 16.62550354 20.42456055 C16.62385023 22.15254278 16.61235281 23.88054061 16.59155273 25.60839844 C16.56258603 28.24217758 16.57095758 30.87394225 16.58398438 33.5078125 C16.57774628 35.19271804 16.56935479 36.87761727 16.55859375 38.5625 C16.56152939 39.34391357 16.56446503 40.12532715 16.56748962 40.93041992 C16.46473501 46.93301883 15.14670356 51.12543784 10.8984375 55.58984375 C5.51618896 58.81161224 -0.84506394 58.00536996 -6.875 57.25 C-11.73534912 55.34336787 -14.67077553 51.91458762 -16.875 47.25 C-17.1628954 44.30079233 -17.29608843 41.57059714 -17.2734375 38.625 C-17.27630768 37.8004834 -17.27917786 36.9759668 -17.28213501 36.12646484 C-17.28417072 34.38833934 -17.2786754 32.65019067 -17.26611328 30.91210938 C-17.250052 28.25859121 -17.26597809 25.60659605 -17.28515625 22.953125 C-17.28317373 21.26041332 -17.27932987 19.56770258 -17.2734375 17.875 C-17.27951019 17.08528809 -17.28558289 16.29557617 -17.2918396 15.48193359 C-17.23381169 10.91484644 -16.76436912 7.85624077 -13.875 4.25 C-11.6875 3.4375 -11.6875 3.4375 -9.875 3.25 C-9.875 2.59 -9.875 1.93 -9.875 1.25 C-6.42834258 0.10111419 -3.63148095 0.0460653 0 0 Z M-3.03149414 10.79248047 C-5.55024212 14.15014398 -5.37700648 16.40003953 -5.37109375 20.5703125 C-5.37254898 21.2701828 -5.37400421 21.9700531 -5.37550354 22.69113159 C-5.37384809 24.16538675 -5.36232618 25.63965981 -5.34155273 27.11376953 C-5.31250302 29.37476493 -5.32096694 31.63342809 -5.33398438 33.89453125 C-5.32774939 35.32813642 -5.31936033 36.7617342 -5.30859375 38.1953125 C-5.29884521 39.50000488 -5.28909668 40.80469727 -5.27905273 42.14892578 C-5.14571533 43.17228027 -5.01237793 44.19563477 -4.875 45.25 C-2.10511924 47.56543207 -2.10511924 47.56543207 0.75 46.9375 C3.06001965 46.4758486 3.06001965 46.4758486 4.125 45.25 C4.23825718 42.83676559 4.28917025 40.45322596 4.29296875 38.0390625 C4.29629715 37.31512299 4.29962555 36.59118347 4.30305481 35.8453064 C4.30812739 34.31028887 4.31046303 32.77526028 4.31030273 31.24023438 C4.31248445 28.89174151 4.33062287 26.54372185 4.34960938 24.1953125 C4.35254419 22.70573078 4.3545284 21.21614682 4.35546875 19.7265625 C4.36265427 19.02334869 4.36983978 18.32013489 4.37724304 17.59561157 C4.36002296 13.91705311 4.22360684 12.39791026 2.125 9.25 C-0.91021654 8.9591153 -0.91021654 8.9591153 -3.03149414 10.79248047 Z " fill="#B94E3C" transform="translate(653.875,786.75)"/>
<path d="M0 0 C1.20849609 -0.00386719 1.20849609 -0.00386719 2.44140625 -0.0078125 C4.4375 0.125 4.4375 0.125 5.4375 1.125 C5.53018999 2.47594982 5.55497326 3.83167091 5.55102539 5.18579102 C5.55094986 6.04660782 5.55087433 6.90742462 5.55079651 7.79432678 C5.54563522 8.72973801 5.54047394 9.66514923 5.53515625 10.62890625 C5.5337413 11.58192123 5.53232635 12.53493622 5.53086853 13.51683044 C5.52525152 16.57375165 5.51269616 19.63060077 5.5 22.6875 C5.49498719 24.75455624 5.49042391 26.82161362 5.48632812 28.88867188 C5.47527656 33.96747588 5.45800055 39.0462257 5.4375 44.125 C7.7475 44.455 10.0575 44.785 12.4375 45.125 C12.45731934 43.83287598 12.47713867 42.54075195 12.49755859 41.20947266 C12.57348368 36.42720655 12.66222078 31.64524995 12.75488281 26.86328125 C12.79322685 24.79140319 12.82807005 22.71945731 12.859375 20.64746094 C12.90490809 17.67358113 12.96292118 14.70017038 13.0234375 11.7265625 C13.03498871 10.79631256 13.04653992 9.86606262 13.05844116 8.90762329 C13.07831085 8.04688202 13.09818054 7.18614075 13.11865234 6.29931641 C13.13197601 5.53986725 13.14529968 4.78041809 13.1590271 3.99795532 C13.4375 2.125 13.4375 2.125 15.4375 0.125 C17.8203125 -0.0703125 17.8203125 -0.0703125 20.5625 0 C21.47257813 0.01804687 22.38265625 0.03609375 23.3203125 0.0546875 C24.01898437 0.07789063 24.71765625 0.10109375 25.4375 0.125 C26.38651034 5.66159044 26.55356631 10.95646769 26.45703125 16.56640625 C26.44290695 17.45230942 26.42878265 18.33821259 26.41423035 19.2509613 C26.38127897 21.11422791 26.34495131 22.97743756 26.30541992 24.84057617 C26.25010393 27.68216106 26.22159977 30.52326861 26.19335938 33.36523438 C26.15790918 35.18232479 26.12085407 36.99938476 26.08203125 38.81640625 C26.07766556 39.66030411 26.07329987 40.50420197 26.06880188 41.37367249 C25.91466749 46.73265837 25.01500901 49.88771616 21.4375 54.125 C16.03841892 57.72438738 8.72733767 56.74645103 2.4375 56.125 C-1.28743984 54.68660015 -3.59458615 52.70714957 -5.71237183 49.24542236 C-6.68390651 46.8221832 -6.80386801 45.05397787 -6.78955078 42.44824219 C-6.78939972 41.52758972 -6.78924866 40.60693726 -6.78909302 39.65838623 C-6.77877045 38.67283752 -6.76844788 37.68728882 -6.7578125 36.671875 C-6.7549826 35.65651672 -6.75215271 34.64115845 -6.74923706 33.59503174 C-6.73805001 30.35490084 -6.71294791 27.11504724 -6.6875 23.875 C-6.6774683 21.67708733 -6.66834278 19.47917032 -6.66015625 17.28125 C-6.63811551 11.89573886 -6.60465251 6.51038924 -6.5625 1.125 C-4.1828388 -0.0648306 -2.64764265 -0.00849966 0 0 Z M3.4375 1.125 C4.4375 3.125 4.4375 3.125 4.4375 3.125 Z " fill="#B84D3B" transform="translate(546.5625,787.875)"/>
<path d="M0 0 C0.53625 0.721875 1.0725 1.44375 1.625 2.1875 C2.16125 2.785625 2.6975 3.38375 3.25 4 C5.07771677 6.90773122 5.79656153 9.87374611 6.625 13.1875 C5.635 14.1775 4.645 15.1675 3.625 16.1875 C0.22187262 15.12874926 -2.38853231 14.17847846 -5.375 12.1875 C-6.0625 9.5625 -6.0625 9.5625 -6.375 7.1875 C-8.355 7.8475 -10.335 8.5075 -12.375 9.1875 C-12.80927095 11.5233219 -12.80927095 11.5233219 -12.375 14.1875 C-10.12921931 16.30118459 -10.12921931 16.30118459 -7.1875 18.0625 C-1.44667917 21.97098677 2.37606931 25.44070792 4.625 32.1875 C5.93296828 46.6494675 5.93296828 46.6494675 3.37890625 51.60546875 C-0.10942783 54.86822927 -4.23616381 56.19897328 -8.96484375 56.41796875 C-13.53255555 55.98118594 -17.46609104 54.5762777 -21.375 52.1875 C-25.02109268 47.57626514 -24.71250672 42.81261205 -24.375 37.1875 C-20.59312119 35.35058743 -18.42931692 35.02912374 -14.375 36.1875 C-14.4575 37.115625 -14.54 38.04375 -14.625 39 C-14.71137948 42.23767217 -14.71137948 42.23767217 -12.5625 44.0625 C-10.34032836 45.41617401 -10.34032836 45.41617401 -7.375 45.1875 C-6.74657921 42.3354364 -6.27755856 40.06743595 -6.375 37.1875 C-8.01095311 34.98742512 -9.25248383 33.83937128 -11.375 32.1875 C-23.62670412 21.95139882 -23.62670412 21.95139882 -25.375 15.1875 C-25.1875 12 -25.1875 12 -24.375 9.1875 C-24.189375 8.23875 -24.00375 7.29 -23.8125 6.3125 C-23.668125 5.61125 -23.52375 4.91 -23.375 4.1875 C-22.715 4.1875 -22.055 4.1875 -21.375 4.1875 C-21.106875 3.56875 -20.83875 2.95 -20.5625 2.3125 C-19.01620241 -0.45455885 -17.24142059 -1.53218746 -14.25 -2.5 C-9.16157241 -3.05308996 -4.17859078 -3.18892454 0 0 Z M-5.375 39.1875 C-4.375 43.1875 -4.375 43.1875 -4.375 43.1875 Z " fill="#B54C3A" transform="translate(494.375,788.8125)"/>
<path d="M0 0 C1.20591797 -0.00128906 2.41183594 -0.00257813 3.65429688 -0.00390625 C4.92466797 -0.00003906 6.19503906 0.00382813 7.50390625 0.0078125 C8.77041016 0.00394531 10.03691406 0.00007812 11.34179688 -0.00390625 C12.54900391 -0.00261719 13.75621094 -0.00132812 15 0 C16.11431396 0.00112793 17.22862793 0.00225586 18.37670898 0.00341797 C21.06640625 0.1328125 21.06640625 0.1328125 23.06640625 1.1328125 C23.06640625 3.7728125 23.06640625 6.4128125 23.06640625 9.1328125 C20.42640625 10.1228125 17.78640625 11.1128125 15.06640625 12.1328125 C14.73640625 26.3228125 14.40640625 40.5128125 14.06640625 55.1328125 C9.11640625 55.6278125 9.11640625 55.6278125 4.06640625 56.1328125 C0.69140625 52.7578125 0.69140625 52.7578125 0.6340332 48.8449707 C0.61423904 47.98430496 0.59444489 47.12363922 0.5740509 46.2368927 C0.56766098 45.31180405 0.56127106 44.38671539 0.5546875 43.43359375 C0.5277607 42.00831612 0.5277607 42.00831612 0.50028992 40.554245 C0.44608732 37.51797937 0.41225921 34.48187183 0.37890625 31.4453125 C0.34574197 29.38734775 0.31125315 27.32940388 0.27539062 25.27148438 C0.19035505 20.22537431 0.12359127 15.17931194 0.06640625 10.1328125 C-2.24359375 10.1328125 -4.55359375 10.1328125 -6.93359375 10.1328125 C-8.04077289 6.81127507 -7.84359155 4.49980434 -6.93359375 1.1328125 C-5.13530298 -0.66547827 -2.42382216 0.00245592 0 0 Z " fill="#B94E3C" transform="translate(511.93359375,787.8671875)"/>
<path d="M0 0 C4 0 4 0 6.5 2.0625 C14.61839082 11.60160921 14.2011424 21.20945745 14.25 33.375 C14.270625 34.65117188 14.29125 35.92734375 14.3125 37.2421875 C14.34684947 45.55475817 14.20586321 52.87467315 8.95703125 59.62890625 C8.24933594 60.26699219 7.54164063 60.90507813 6.8125 61.5625 C6.09707031 62.22378906 5.38164063 62.88507812 4.64453125 63.56640625 C4.10183594 64.03949219 3.55914063 64.51257813 3 65 C0.70607881 61.55911822 0.75960415 60.33547716 0.78881836 56.29101562 C0.79219711 55.11970093 0.79557587 53.94838623 0.79905701 52.74157715 C0.81924644 50.84309021 0.81924644 50.84309021 0.83984375 48.90625 C0.84779003 46.92301728 0.85573134 44.93978452 0.86337376 42.9565506 C0.87651141 40.17721793 0.89871373 37.39798584 0.92095947 34.61871338 C0.95892914 29.75509333 0.98733041 24.89142989 1.00868225 20.02770996 C1.02096744 17.43791576 1.038598 14.84814049 1.06199646 12.25842285 C1.06852737 11.08710815 1.07505829 9.91579346 1.08178711 8.70898438 C1.09004013 7.67656616 1.09829315 6.64414795 1.10679626 5.58044434 C1.1143237 2.88175788 1.1143237 2.88175788 0 0 Z " fill="#000000" transform="translate(512,654)"/>
<path d="M0 0 C0.33 0.66 0.66 1.32 1 2 C1.66 2.33 2.32 2.66 3 3 C3 21.15 3 39.3 3 58 C-6.03525365 51.22355976 -6.03525365 51.22355976 -8.3125 47.5625 C-8.76238281 46.86253906 -9.21226562 46.16257812 -9.67578125 45.44140625 C-12.9248444 39.45124557 -14.58334307 34.56488199 -14.5625 27.8125 C-14.5622583 27.07362549 -14.5620166 26.33475098 -14.56176758 25.57348633 C-14.28739156 16.68851688 -10.36033254 9.90565364 -5 3 C-5.66 2.67 -6.32 2.34 -7 2 C-4.69 1.34 -2.38 0.68 0 0 Z " fill="#000000" transform="translate(621,655)"/>
<path d="M0 0 C1.97265625 0.265625 1.97265625 0.265625 4.97265625 2.265625 C5.30218506 4.51148987 5.30218506 4.51148987 5.23730469 7.34204102 C5.21177521 8.92862267 5.21177521 8.92862267 5.18572998 10.54725647 C5.1515094 11.69310715 5.11728882 12.83895782 5.08203125 14.01953125 C5.05796204 15.19072006 5.03389282 16.36190887 5.00909424 17.56858826 C4.95536281 20.04776081 4.89434483 22.52678438 4.82666016 25.00561523 C4.72300256 28.81539692 4.64077018 32.62516722 4.5625 36.43554688 C4.50776183 38.8385705 4.45181337 41.24156692 4.39453125 43.64453125 C4.36840759 44.79240616 4.34228394 45.94028107 4.31536865 47.12294006 C4.28574036 48.177509 4.25611206 49.23207794 4.22558594 50.31860352 C4.20099304 51.2518898 4.17640015 52.18517609 4.15106201 53.14674377 C3.97265625 55.265625 3.97265625 55.265625 2.97265625 56.265625 C0.9765625 56.43359375 0.9765625 56.43359375 -1.46484375 56.453125 C-2.26792969 56.46730469 -3.07101562 56.48148438 -3.8984375 56.49609375 C-6.02734375 56.265625 -6.02734375 56.265625 -8.02734375 54.265625 C-8.28131104 52.06445312 -8.28131104 52.06445312 -8.28613281 49.296875 C-8.29243713 48.26240234 -8.29874146 47.22792969 -8.30523682 46.16210938 C-8.30118835 45.04126953 -8.29713989 43.92042969 -8.29296875 42.765625 C-8.2948822 41.61900391 -8.29679565 40.47238281 -8.29876709 39.29101562 C-8.30012997 36.86327902 -8.29642642 34.43553516 -8.28808594 32.0078125 C-8.27738813 28.28108427 -8.28797806 24.55483814 -8.30078125 20.828125 C-8.29945967 18.47395726 -8.29689732 16.11978983 -8.29296875 13.765625 C-8.29701721 12.64478516 -8.30106567 11.52394531 -8.30523682 10.36914062 C-8.2989325 9.33466797 -8.29262817 8.30019531 -8.28613281 7.234375 C-8.28454163 6.32107422 -8.28295044 5.40777344 -8.28131104 4.46679688 C-7.70132044 -0.56006706 -4.26142775 0.03186114 0 0 Z " fill="#B94E3C" transform="translate(626.02734375,787.734375)"/>
<path d="M0 0 C0.66 0.33 1.32 0.66 2 1 C2.05444001 4.00024947 2.0938836 6.99949039 2.125 10 C2.14175781 10.83917969 2.15851562 11.67835938 2.17578125 12.54296875 C2.23671659 20.40362717 1.61589126 27.00971599 -4 33 C-6.25 32.875 -6.25 32.875 -9 32 C-13.63939081 26.300177 -15.59499285 20.39438014 -15.36328125 13.1015625 C-14.72874804 9.43082202 -12.94060125 8.17604493 -10 6 C-3.52471001 1.659421 -3.52471001 1.659421 0 0 Z " fill="#000000" transform="translate(621,733)"/>
<path d="M0 0 C93.72 0 187.44 0 284 0 C284 0.33 284 0.66 284 1 C190.28 1 96.56 1 0 1 C0 0.67 0 0.34 0 0 Z " fill="#B94E3C" transform="translate(642,438)"/>
<path d="M0 0 C0.33 0 0.66 0 1 0 C1 12.87 1 25.74 1 39 C0.67 39 0.34 39 0 39 C0 26.13 0 13.26 0 0 Z " fill="#B94E3C" transform="translate(539,791)"/>
<path d="M0 0 C10.23 0 20.46 0 31 0 C31 0.33 31 0.66 31 1 C20.77 1 10.54 1 0 1 C0 0.67 0 0.34 0 0 Z " fill="#B94E3C" transform="translate(539,438)"/>
<path d="M0 0 C9.9 0 19.8 0 30 0 C30 0.33 30 0.66 30 1 C20.1 1 10.2 1 0 1 C0 0.67 0 0.34 0 0 Z " fill="#B94E3C" transform="translate(476,651)"/>
<path d="M0 0 C0.33 0 0.66 0 1 0 C1 8.25 1 16.5 1 25 C0.67 25 0.34 25 0 25 C0 16.75 0 8.5 0 0 Z " fill="#B94E3C" transform="translate(636,802)"/>
<path d="M0 0 C0.33 0 0.66 0 1 0 C1 6.6 1 13.2 1 20 C0.67 20 0.34 20 0 20 C0 13.4 0 6.8 0 0 Z " fill="#B94E3C" transform="translate(598,802)"/>
<path d="M0 0 C4.95 0 9.9 0 15 0 C15 0.33 15 0.66 15 1 C10.05 1 5.1 1 0 1 C0 0.67 0 0.34 0 0 Z " fill="#B94E3C" transform="translate(587,787)"/>
<path d="M0 0 C4.62 0 9.24 0 14 0 C14 0.33 14 0.66 14 1 C9.38 1 4.76 1 0 1 C0 0.67 0 0.34 0 0 Z " fill="#B94E3C" transform="translate(546,755)"/>
<path d="M0 0 C0.33 0 0.66 0 1 0 C1 3.63 1 7.26 1 11 C0.67 11 0.34 11 0 11 C0 7.37 0 3.74 0 0 Z " fill="#000000" transform="translate(500,822)"/>
<path d="M0 0 C0.33 0 0.66 0 1 0 C1 3.63 1 7.26 1 11 C0.67 11 0.34 11 0 11 C0 7.37 0 3.74 0 0 Z " fill="#000000" transform="translate(591,815)"/>
<path d="M0 0 C2.97 0 5.94 0 9 0 C9 0.33 9 0.66 9 1 C6.03 1 3.06 1 0 1 C0 0.67 0 0.34 0 0 Z " fill="#B94E3C" transform="translate(643,557)"/>
<path d="M0 0 C1 4 1 4 1 4 Z " fill="#000000" transform="translate(480,827)"/>
<path d="M0 0 C3 1 3 1 3 1 Z " fill="#B94E3C" transform="translate(622,654)"/>
<path d="M0 0 C2 1 2 1 2 1 Z " fill="#000000" transform="translate(663,585)"/>
<path d="" fill="#000000" transform="translate(0,0)"/>
<path d="" fill="#B94E3C" transform="translate(0,0)"/>
<path d="" fill="#000000" transform="translate(0,0)"/>
<path d="" fill="#000000" transform="translate(0,0)"/>
<path d="" fill="#000000" transform="translate(0,0)"/>
<path d="" fill="#B94E3C" transform="translate(0,0)"/>
<path d="" fill="#000000" transform="translate(0,0)"/>
<path d="" fill="#000000" transform="translate(0,0)"/>
<path d="" fill="#B94E3C" transform="translate(0,0)"/>
<path d="" fill="#B94E3C" transform="translate(0,0)"/>
<path d="" fill="#B94E3C" transform="translate(0,0)"/>
<path d="" fill="#B94E3C" transform="translate(0,0)"/>
</svg>
