<?xml version="1.0" standalone="no"?>
<!DOCTYPE svg PUBLIC "-//W3C//DTD SVG 20010904//EN"
 "http://www.w3.org/TR/2001/REC-SVG-20010904/DTD/svg10.dtd">
<svg version="1.0" xmlns="http://www.w3.org/2000/svg"
 width="2000.000000pt" height="2000.000000pt" viewBox="0 0 2000.000000 2000.000000"
 preserveAspectRatio="xMidYMid meet">

<g transform="translate(0.000000,2000.000000) scale(0.100000,-0.100000)"
fill="#000000" stroke="none">
<path d="M8392 13108 c-7 -7 -12 -19 -12 -28 0 -9 -7 -25 -15 -36 -8 -10 -15
-29 -15 -41 0 -12 -4 -25 -10 -28 -5 -3 -10 -15 -10 -25 0 -10 -8 -33 -17 -52
-31 -62 -33 -68 -33 -90 0 -13 -7 -32 -15 -42 -8 -11 -15 -30 -15 -42 0 -13
-4 -26 -10 -29 -5 -3 -10 -16 -10 -29 0 -12 -7 -31 -15 -42 -8 -10 -15 -29
-15 -41 0 -12 -4 -25 -10 -28 -5 -3 -10 -16 -10 -29 0 -12 -7 -31 -15 -42 -8
-10 -15 -29 -15 -41 0 -12 -4 -25 -10 -28 -5 -3 -10 -17 -10 -29 0 -13 -7 -29
-15 -36 -8 -7 -15 -23 -15 -36 0 -12 -4 -26 -10 -29 -5 -3 -10 -16 -10 -29 0
-12 -4 -26 -9 -31 -11 -12 -60 -147 -68 -188 -3 -15 -9 -30 -14 -33 -5 -3 -9
-15 -9 -27 0 -12 -7 -31 -15 -41 -8 -11 -15 -30 -15 -42 0 -13 -4 -26 -10 -29
-5 -3 -10 -17 -10 -29 0 -13 -7 -29 -15 -36 -8 -7 -15 -23 -15 -36 0 -24 -2
-31 -34 -91 -9 -17 -16 -38 -16 -47 0 -16 -3 -24 -34 -83 -9 -17 -16 -40 -16
-51 0 -12 -4 -24 -10 -27 -5 -3 -10 -17 -10 -29 0 -13 -7 -29 -15 -36 -8 -7
-15 -25 -15 -41 0 -15 -4 -31 -10 -34 -5 -3 -10 -16 -10 -28 0 -12 -7 -31 -15
-41 -8 -11 -15 -30 -15 -42 0 -13 -4 -26 -10 -29 -5 -3 -10 -16 -10 -29 0 -12
-7 -31 -15 -42 -8 -10 -15 -29 -15 -41 0 -12 -4 -25 -10 -28 -5 -3 -10 -16
-10 -28 0 -12 -7 -31 -15 -41 -8 -11 -15 -28 -15 -38 0 -18 -3 -26 -34 -85 -9
-17 -16 -38 -16 -47 0 -16 -3 -24 -34 -83 -9 -17 -16 -40 -16 -51 0 -12 -4
-24 -10 -27 -5 -3 -10 -16 -10 -28 0 -12 -7 -31 -15 -41 -8 -11 -15 -30 -15
-42 0 -13 -4 -26 -10 -29 -5 -3 -10 -15 -10 -25 0 -10 -6 -31 -14 -47 -8 -15
-19 -46 -26 -68 -10 -36 -25 -76 -50 -140 -17 -42 -21 -95 -8 -95 7 -1 114 0
237 0 234 1 251 4 251 44 0 11 7 30 15 40 8 11 15 30 15 42 0 13 5 26 10 29 6
3 10 17 10 30 0 13 4 26 9 29 5 4 17 32 26 64 9 31 23 69 31 84 8 14 14 35 14
46 0 12 5 24 10 27 6 3 10 16 10 28 0 12 7 31 15 41 8 11 15 30 15 42 0 13 5
26 10 29 6 3 10 16 10 28 0 12 7 31 15 41 8 11 15 30 15 42 0 13 5 26 10 29 6
3 10 17 10 30 0 13 4 26 9 29 5 4 17 32 26 64 9 31 21 65 26 74 10 19 51 134
75 213 9 28 22 62 30 77 8 14 14 35 14 46 0 12 4 23 9 26 5 3 11 18 14 33 5
30 24 87 38 115 5 10 9 24 9 32 0 8 8 29 17 48 30 61 33 68 33 85 0 10 7 27
15 37 8 11 15 28 15 38 0 10 4 26 9 36 5 9 17 37 26 62 9 25 21 53 26 62 5 10
9 28 9 40 0 13 7 32 15 42 8 11 15 30 15 42 0 13 5 26 10 29 6 3 10 16 10 29
0 12 7 31 15 42 8 10 15 29 15 41 0 12 5 25 10 28 6 3 10 18 10 33 0 15 7 36
15 46 8 11 15 30 15 42 0 13 4 25 9 28 5 3 11 18 14 33 9 49 35 108 46 107 25
-2 29 -5 34 -26 6 -29 27 -87 38 -110 5 -10 9 -26 9 -35 0 -10 7 -27 15 -37 8
-11 15 -34 16 -50 0 -17 8 -44 18 -61 20 -34 -3 -32 309 -25 108 2 166 8 172
15 7 8 3 30 -11 66 -12 30 -28 72 -36 94 -29 75 -35 90 -49 118 -8 16 -14 37
-14 47 0 10 -4 22 -10 25 -5 3 -10 17 -10 29 0 13 -7 29 -15 36 -8 7 -15 25
-15 41 0 15 -4 31 -10 34 -5 3 -10 13 -10 22 0 14 -20 66 -41 105 -5 10 -9 28
-9 42 0 13 -7 29 -15 36 -8 7 -15 19 -15 28 0 26 -30 112 -60 172 -6 13 -49
15 -281 18 -205 2 -278 -1 -287 -10z"/>
<path d="M10003 13107 c-3 -4 1 -15 8 -23 12 -14 33 -66 63 -151 6 -18 14 -33
18 -33 5 0 8 -7 8 -15 0 -8 7 -31 16 -52 9 -21 21 -49 27 -63 14 -36 39 -92
48 -112 5 -10 9 -22 9 -28 0 -6 11 -33 25 -62 14 -28 25 -59 25 -69 0 -9 7
-22 15 -29 8 -7 15 -19 15 -26 0 -8 4 -22 9 -32 9 -18 30 -67 51 -117 7 -16
18 -43 25 -60 7 -16 18 -43 25 -60 7 -16 18 -43 25 -60 7 -16 18 -43 25 -60 6
-16 18 -43 26 -58 8 -16 14 -35 14 -43 0 -8 4 -22 9 -32 13 -27 67 -153 101
-237 7 -16 16 -37 21 -45 5 -8 12 -22 15 -30 21 -55 53 -128 65 -152 5 -10 9
-24 9 -32 0 -8 6 -27 14 -43 8 -15 19 -41 26 -58 7 -16 18 -43 26 -58 8 -16
14 -37 14 -48 0 -10 5 -19 10 -19 6 0 10 -8 10 -17 0 -16 38 -103 61 -143 5
-8 12 -22 15 -30 3 -8 10 -23 15 -32 5 -10 9 -26 9 -35 0 -10 7 -27 15 -37 8
-11 15 -28 15 -38 0 -10 5 -18 10 -18 6 0 10 -9 10 -21 0 -11 7 -35 16 -52 31
-59 34 -67 34 -86 0 -10 7 -24 15 -31 8 -7 15 -23 15 -36 0 -13 5 -24 10 -24
6 0 10 -9 10 -21 0 -11 7 -35 16 -52 30 -58 34 -67 34 -81 0 -7 7 -19 15 -26
8 -7 15 -21 15 -31 0 -18 8 -37 32 -79 4 -8 11 -22 14 -30 18 -45 27 -68 40
-93 8 -16 14 -35 14 -43 0 -18 21 -55 40 -71 12 -10 317 -11 1455 -7 792 3
1519 6 1615 7 l175 3 3 1519 2 1520 -2256 0 c-1241 0 -2258 -4 -2261 -8z"/>
<path d="M8998 12063 l-118 -4 0 -33 c0 -19 7 -46 14 -62 8 -15 13 -31 10 -36
-3 -4 0 -8 6 -8 6 0 9 -4 5 -9 -3 -5 -1 -12 5 -16 5 -3 10 -17 10 -29 0 -13 7
-29 15 -36 9 -7 14 -19 11 -26 -3 -8 7 -28 22 -46 15 -18 22 -29 16 -25 -6 3
-11 0 -11 -8 0 -8 4 -15 9 -15 4 0 8 -4 8 -9 0 -5 8 -26 17 -47 9 -22 18 -50
20 -64 2 -14 13 -40 24 -58 10 -18 19 -48 20 -65 0 -29 1 -30 9 -9 5 12 15 22
22 22 10 0 10 -2 0 -8 -15 -10 -12 -62 4 -62 7 0 15 -7 18 -16 5 -14 4 -15 -8
-5 -12 10 -13 6 -5 -28 9 -38 10 -139 1 -113 -2 6 -13 12 -23 12 -13 0 -18 -4
-13 -12 5 -7 3 -8 -6 -3 -7 5 -111 10 -231 13 l-218 4 -27 -29 c-22 -24 -25
-35 -21 -73 2 -25 2 -39 0 -32 -7 19 -23 4 -23 -23 0 -13 -5 -27 -10 -30 -6
-4 -8 -11 -5 -16 4 -5 2 -9 -3 -9 -5 0 -9 -7 -9 -15 0 -8 5 -15 11 -15 7 0 6
-3 -1 -8 -16 -10 -44 -88 -35 -97 4 -4 0 -5 -8 -3 -11 2 -16 -7 -18 -30 l-3
-32 409 2 c226 2 408 0 406 -4 -2 -3 7 -15 20 -26 14 -10 25 -28 25 -38 1 -48
4 -54 18 -42 10 8 12 7 8 -5 -4 -8 -1 -18 4 -22 6 -3 8 -12 4 -18 -15 -24 -12
-45 7 -62 11 -10 20 -26 20 -36 0 -10 9 -24 20 -32 18 -13 19 -15 5 -21 -9 -3
-13 -2 -10 3 3 5 1 12 -4 16 -16 9 -3 -36 16 -58 10 -11 12 -17 5 -13 -11 7
-12 4 -3 -13 7 -12 9 -27 5 -33 -5 -7 -2 -9 7 -6 10 4 15 -5 17 -36 1 -22 7
-42 12 -44 6 -2 10 -15 10 -29 0 -14 10 -39 22 -56 12 -17 16 -27 9 -23 -10 7
-11 4 -1 -13 6 -12 15 -19 19 -17 5 3 7 -9 5 -26 -4 -35 7 -47 46 -49 l25 -1
-25 -8 c-18 -6 -9 -8 35 -7 33 0 45 2 28 4 -18 2 -33 7 -33 11 0 4 78 5 172 2
l173 -5 -135 -5 -135 -6 174 -2 173 -2 -7 38 c-3 20 -11 41 -16 46 -5 6 -9 20
-9 33 0 15 -6 23 -17 23 -14 0 -15 2 -4 9 9 6 10 11 2 15 -6 4 -11 16 -11 27
0 11 -7 31 -16 44 -9 13 -13 29 -9 34 3 6 -3 16 -13 22 -13 8 -17 20 -14 42 3
19 1 28 -6 23 -5 -3 -13 6 -16 20 -4 15 -13 33 -21 40 -8 8 -12 21 -9 29 4 8
1 15 -6 15 -10 0 -10 3 0 15 10 12 10 15 0 15 -8 0 -10 3 -7 7 4 3 -1 15 -10
25 -14 16 -15 21 -4 28 11 6 9 10 -6 19 -14 7 -19 19 -18 36 2 16 -2 25 -11
25 -7 0 -18 9 -24 20 -9 16 -8 20 6 20 11 0 15 6 11 20 -3 11 0 23 6 27 6 4
141 6 299 4 282 -2 288 -2 288 18 0 11 -4 23 -10 26 -5 3 -10 14 -10 24 0 10
-7 24 -15 31 -9 7 -14 18 -12 25 3 6 -1 19 -9 30 -8 10 -14 32 -14 48 0 22 -4
28 -16 23 -8 -3 -13 -2 -9 3 6 11 -5 42 -14 37 -3 -2 -7 19 -9 48 -5 93 2 91
-325 91 -155 0 -289 2 -297 5 -29 10 -58 52 -55 79 2 15 -7 42 -22 65 -13 21
-20 35 -13 31 7 -4 4 7 -5 25 -9 17 -14 34 -11 38 3 3 0 12 -8 21 -8 9 -16 30
-18 46 -1 17 -8 29 -14 28 -6 -1 -10 8 -9 20 1 12 -5 38 -13 57 -25 58 -30 74
-36 103 -4 15 -11 27 -16 27 -6 0 -10 8 -10 19 0 10 -7 31 -14 47 -8 15 -13
31 -10 36 3 4 -3 8 -13 8 -15 0 -16 2 -3 10 10 6 11 10 3 10 -7 0 -13 7 -13
16 0 8 -5 12 -11 8 -8 -4 -8 -1 -1 12 14 28 4 48 -16 32 -14 -12 -14 -11 -2 9
12 19 12 24 -4 42 -21 23 -12 22 -338 14z m25 -360 c-3 -7 -6 -13 -8 -13 -2 0
-5 6 -8 13 -3 8 1 14 8 14 7 0 11 -6 8 -14z m520 -258 c-3 -9 -8 -14 -10 -11
-3 3 -2 9 2 15 9 16 15 13 8 -4z m47 -85 c0 -5 -5 -10 -11 -10 -5 0 -7 5 -4
10 3 6 8 10 11 10 2 0 4 -4 4 -10z m-438 -14 c7 4 8 2 4 -5 -9 -13 -26 -5 -25
12 0 9 2 8 6 -1 2 -6 10 -9 15 -6z m0 -63 c-3 -16 -7 -22 -10 -15 -4 13 4 42
11 42 2 0 2 -12 -1 -27z m1093 -53 c3 -5 1 -10 -4 -10 -6 0 -11 5 -11 10 0 6
2 10 4 10 3 0 8 -4 11 -10z m-64 -57 c13 -16 12 -17 -3 -4 -17 13 -22 21 -14
21 2 0 10 -8 17 -17z m-236 -3 c-3 -5 -14 -10 -23 -10 -15 0 -15 2 -2 10 20
13 33 13 25 0z m85 6 c0 -11 -19 -15 -25 -6 -3 5 1 10 9 10 9 0 16 -2 16 -4z
m111 -13 c12 -15 12 -16 -4 -10 -10 4 -30 7 -43 7 -14 0 -22 4 -19 10 10 16
51 12 66 -7z m104 -33 c3 -5 1 -10 -4 -10 -6 0 -11 5 -11 10 0 6 2 10 4 10 3
0 8 -4 11 -10z m-93 -32 c-6 -6 -15 -8 -19 -4 -4 4 -1 11 7 16 19 12 27 3 12
-12z m23 -28 c3 -5 1 -10 -4 -10 -6 0 -11 5 -11 10 0 6 2 10 4 10 3 0 8 -4 11
-10z m45 -2 c0 -7 -5 -20 -11 -28 -9 -13 -10 -12 -5 3 3 9 1 17 -5 17 -6 0 -7
5 -4 10 9 14 25 12 25 -2z m-5 -57 c10 -18 -17 -23 -33 -7 -15 15 -15 16 5 16
12 0 24 -4 28 -9z m-1678 -43 c-3 -8 -6 -5 -6 6 -1 11 2 17 5 13 3 -3 4 -12 1
-19z m1723 -2 c0 -2 -7 -9 -15 -16 -12 -10 -15 -10 -15 4 0 9 7 16 15 16 8 0
15 -2 15 -4z m-450 -100 c0 -2 -7 -6 -15 -10 -8 -3 -15 -1 -15 4 0 6 7 10 15
10 8 0 15 -2 15 -4z m-480 -36 c0 -5 -2 -10 -4 -10 -3 0 -8 5 -11 10 -3 6 -1
10 4 10 6 0 11 -4 11 -10z m445 -70 c3 -5 1 -10 -4 -10 -6 0 -11 5 -11 10 0 6
2 10 4 10 3 0 8 -4 11 -10z m-390 -100 c3 -5 1 -10 -4 -10 -6 0 -11 5 -11 10
0 6 2 10 4 10 3 0 8 -4 11 -10z"/>
<path d="M7314 9782 c-12 -11 -14 -172 -14 -938 0 -619 3 -932 10 -945 10 -17
22 -19 138 -18 168 1 177 4 177 55 0 21 -4 53 -8 69 -5 22 -5 26 3 15 7 -11
10 -4 10 30 0 29 -3 40 -9 31 -5 -8 -8 37 -6 109 2 82 0 118 -7 109 -7 -10 -8
-8 -2 6 4 11 9 35 12 54 3 25 1 32 -8 26 -9 -6 -9 -3 -1 14 7 12 15 50 18 86
5 56 4 65 -9 60 -9 -4 -18 1 -22 11 -4 12 -2 15 9 10 9 -3 15 0 15 9 0 8 -4
15 -10 15 -5 0 -10 4 -10 10 0 5 5 9 11 7 6 -1 14 4 17 12 2 8 0 11 -6 8 -5
-4 -15 0 -22 8 -10 12 -9 15 5 15 14 0 15 3 5 15 -11 13 -7 19 11 17 4 -1 10
10 13 23 4 16 13 25 27 25 11 0 17 5 14 10 -3 6 1 10 9 10 9 0 16 -5 16 -11 0
-13 119 -8 260 10 55 7 77 6 83 -2 4 -7 6 -194 5 -417 -1 -223 1 -411 6 -418
5 -9 95 -12 369 -12 199 0 368 4 375 8 9 6 12 39 9 125 -1 64 -7 120 -11 124
-4 4 -108 8 -229 8 -122 0 -228 4 -234 8 -10 6 -13 176 -13 791 0 595 -3 785
-12 794 -18 18 -322 17 -313 0 4 -7 -1 -4 -10 7 -14 17 -17 18 -25 5 -8 -13
-10 -12 -10 3 0 19 -14 20 -409 22 -168 1 -217 -2 -227 -13z m430 -11 c4 -5
-1 -8 -9 -7 -21 3 -31 16 -12 16 9 0 18 -4 21 -9z m156 -1 c0 -5 -7 -7 -15 -4
-8 4 -15 8 -15 10 0 2 7 4 15 4 8 0 15 -4 15 -10z m37 4 c-3 -3 -12 -4 -19 -1
-8 3 -5 6 6 6 11 1 17 -2 13 -5z m-620 -646 c-1 -117 -2 -24 -2 207 0 231 1
327 2 213 2 -114 2 -303 0 -420z m695 570 c-8 -8 -9 -4 -5 13 4 13 8 18 11 10
2 -7 -1 -18 -6 -23z m-567 -48 c3 -5 1 -10 -4 -10 -6 0 -11 5 -11 10 0 6 2 10
4 10 3 0 8 -4 11 -10z m555 -50 c0 -5 -5 -10 -11 -10 -5 0 -7 5 -4 10 3 6 8
10 11 10 2 0 4 -4 4 -10z m-127 -62 c14 0 28 -7 32 -15 4 -11 1 -13 -12 -8
-10 4 -30 12 -45 17 -16 5 -25 14 -22 20 4 6 9 6 14 -2 4 -7 19 -12 33 -12z
m-48 -24 c63 -34 76 -54 87 -141 11 -90 3 -242 -16 -287 -24 -57 -46 -68 -145
-74 -88 -5 -91 -4 -98 19 -5 13 -8 125 -8 248 1 203 3 225 19 237 10 7 16 16
13 21 -10 16 109 -3 148 -23z m178 13 c3 -8 -6 -12 -24 -12 -24 0 -27 2 -14
11 8 6 12 14 8 18 -4 4 0 4 9 1 9 -4 18 -12 21 -18z m-348 3 c-3 -5 -12 -10
-18 -10 -7 0 -6 4 3 10 19 12 23 12 15 0z m-35 -24 c0 -2 -8 -10 -17 -17 -16
-13 -17 -12 -4 4 13 16 21 21 21 13z m301 -23 c13 -16 12 -17 -3 -4 -10 7 -18
15 -18 17 0 8 8 3 21 -13z m36 -75 c-3 -7 -5 -2 -5 12 0 14 2 19 5 13 2 -7 2
-19 0 -25z m50 -205 c-2 -16 -4 -5 -4 22 0 28 2 40 4 28 2 -13 2 -35 0 -50z
m10 -295 c-3 -8 -6 -5 -6 6 -1 11 2 17 5 13 3 -3 4 -12 1 -19z m-700 -115 c-2
-21 -4 -4 -4 37 0 41 2 58 4 38 2 -21 2 -55 0 -75z m702 35 c0 -31 -3 -37 -8
-24 -7 18 -3 66 5 66 2 0 4 -19 3 -42z m-702 -125 c-3 -10 -5 -2 -5 17 0 19 2
27 5 18 2 -10 2 -26 0 -35z m277 11 c3 -8 2 -12 -4 -9 -6 3 -10 10 -10 16 0
14 7 11 14 -7z m-277 -81 c-3 -10 -5 -2 -5 17 0 19 2 27 5 18 2 -10 2 -26 0
-35z m0 -90 c-3 -10 -5 -2 -5 17 0 19 2 27 5 18 2 -10 2 -26 0 -35z m0 -120
c-2 -21 -4 -6 -4 32 0 39 2 55 4 38 2 -18 2 -50 0 -70z m303 53 c0 -3 -4 -8
-10 -11 -5 -3 -10 -1 -10 4 0 6 5 11 10 11 6 0 10 -2 10 -4z m-303 -218 c-3
-8 -6 -5 -6 6 -1 11 2 17 5 13 3 -3 4 -12 1 -19z m0 -180 c-2 -13 -4 -3 -4 22
0 25 2 35 4 23 2 -13 2 -33 0 -45z"/>
<path d="M9820 9761 c-8 -5 -40 -12 -70 -15 -91 -11 -110 -17 -110 -32 0 -8
-6 -17 -13 -20 -8 -3 -34 -32 -58 -64 -43 -58 -75 -84 -43 -35 9 14 14 25 11
25 -4 0 5 11 19 25 14 14 22 30 18 37 -5 7 -2 9 8 5 9 -3 23 2 33 13 15 17 14
18 -16 29 -42 14 -111 14 -145 -1 -23 -11 -25 -16 -20 -48 3 -19 6 -100 6
-179 0 -162 8 -184 14 -37 2 53 6 96 8 96 19 -2 48 -14 48 -20 0 -5 -7 -16
-16 -24 -8 -9 -11 -16 -5 -16 6 0 4 -14 -5 -35 -8 -20 -14 -67 -14 -115 0 -55
-3 -79 -11 -75 -6 4 -7 19 -4 35 3 16 2 31 -4 35 -7 4 -11 -8 -11 -33 0 -25 5
-42 14 -45 7 -3 17 -23 21 -44 5 -21 9 -42 11 -48 5 -22 12 -99 8 -82 -9 28
-24 9 -24 -29 0 -23 -4 -33 -11 -29 -11 7 -9 86 2 95 4 3 2 16 -4 30 -9 22
-11 18 -18 -40 -13 -107 -9 -586 6 -670 12 -69 18 -67 16 5 0 17 2 25 5 18 3
-7 11 -10 18 -7 8 3 16 -4 20 -18 4 -16 0 -27 -14 -37 -11 -7 -20 -20 -20 -27
0 -8 -4 -14 -9 -14 -8 0 -23 -89 -25 -152 -1 -15 -7 -33 -15 -40 -12 -11 -12
-10 -5 2 25 44 10 46 -31 4 l-44 -47 -69 5 c-87 6 -151 44 -152 90 0 10 -6 15
-13 13 -9 -4 -11 7 -8 41 2 36 0 45 -10 39 -9 -6 -11 -3 -6 8 4 10 2 29 -3 43
-7 18 -7 23 2 18 7 -5 8 -3 3 6 -9 15 -7 1142 2 1167 4 9 2 14 -3 10 -5 -3
-10 3 -10 14 0 10 3 19 6 19 4 0 7 6 7 13 0 6 3 31 7 54 7 40 6 43 -19 53 -14
5 -75 10 -134 10 -118 0 -137 -8 -126 -52 3 -13 8 -55 10 -94 2 -38 5 -88 7
-112 1 -23 -1 -42 -5 -42 -5 0 -5 -21 -1 -47 4 -27 6 -55 5 -63 -2 -26 -1
-213 4 -535 2 -170 0 -337 -4 -370 -5 -34 -5 -61 0 -63 5 -2 9 -8 9 -13 0 -6
-4 -7 -10 -4 -5 3 -10 -3 -10 -14 0 -11 5 -23 11 -26 7 -5 8 -34 4 -90 -5 -51
-3 -85 3 -89 5 -3 9 2 8 11 0 9 5 18 13 21 8 3 11 0 7 -7 -4 -6 -2 -11 3 -11
6 0 11 -7 11 -16 0 -9 5 -12 12 -8 7 4 8 3 4 -4 -4 -7 -2 -12 4 -12 6 0 8 -5
4 -11 -4 -7 -14 0 -25 18 -10 15 -19 23 -19 18 0 -6 7 -21 16 -33 8 -12 12
-22 8 -22 -3 0 13 -20 37 -45 30 -31 49 -43 62 -39 11 4 17 1 15 -8 -2 -7 6
-13 17 -13 11 0 21 8 23 19 3 14 0 17 -13 12 -9 -3 -22 -3 -28 1 -7 4 -14 8
-17 8 -3 1 -15 5 -28 9 -19 6 -21 10 -11 22 12 14 7 18 -22 15 -9 -1 -16 5
-16 14 0 21 19 19 45 -5 13 -12 22 -16 22 -9 0 7 3 9 6 6 4 -4 2 -13 -5 -21
-10 -12 -6 -14 25 -12 29 1 39 -3 47 -21 7 -16 16 -22 29 -17 23 7 58 -4 55
-18 -1 -6 4 -13 12 -16 8 -2 11 0 7 6 -3 6 -2 13 4 17 6 3 13 0 16 -9 4 -10
15 -13 40 -9 19 3 34 1 34 -4 0 -5 9 -9 19 -9 11 0 17 4 15 8 -3 4 0 8 5 8 6
0 11 -4 11 -10 0 -5 7 -10 15 -10 8 0 14 5 13 11 -2 6 3 14 10 16 6 3 12 -2
12 -11 0 -22 13 -20 35 4 10 11 21 17 25 15 5 -3 11 1 13 7 3 8 6 7 6 -4 1 -9
-7 -22 -16 -28 -13 -8 -14 -13 -5 -16 6 -3 10 -10 6 -15 -3 -5 0 -9 6 -9 6 0
9 8 6 18 -4 11 4 28 19 45 31 32 30 32 32 7 1 -13 -4 -20 -15 -20 -14 0 -15
-2 -2 -9 8 -6 18 -7 22 -5 4 3 8 0 8 -5 0 -6 4 -11 9 -11 5 0 7 10 4 21 -5 18
-3 20 13 11 15 -8 30 -6 59 8 42 20 78 17 106 -6 8 -8 23 -14 32 -14 9 0 19
-4 22 -10 3 -5 21 -10 39 -10 17 0 38 -6 44 -12 9 -9 58 -13 172 -13 114 0
163 4 171 13 7 6 25 12 39 12 14 0 46 9 71 21 51 24 159 126 159 150 0 9 7 22
16 30 8 7 13 21 11 31 -3 10 -1 18 5 18 5 0 6 5 3 10 -3 6 -2 10 3 10 9 0 24
103 25 170 0 33 -14 135 -29 207 -3 18 -12 38 -20 44 -8 6 -14 17 -14 25 0 46
-235 284 -350 355 -14 9 -64 53 -112 97 -103 98 -141 166 -142 253 -1 45 5 64
27 98 34 51 65 64 139 58 46 -4 63 -11 85 -34 38 -38 64 -116 60 -183 -2 -54
-1 -55 27 -58 16 -2 33 1 39 7 6 6 22 11 37 11 14 0 38 7 54 15 15 8 41 15 57
15 15 0 31 5 34 10 3 6 15 10 26 10 21 0 22 3 19 110 -1 41 -6 79 -11 85 -5 5
-9 18 -9 28 0 22 -63 127 -90 152 -34 31 -97 64 -161 84 -41 13 -307 15 -329
2z m-344 -101 c0 -11 -4 -20 -8 -20 -4 0 -8 9 -8 20 0 11 4 20 8 20 4 0 8 -9
8 -20z m8 -74 c6 -26 5 -28 -8 -17 -9 8 -16 25 -16 39 0 32 15 18 24 -22z
m-647 12 c-3 -8 -6 -5 -6 6 -1 11 2 17 5 13 3 -3 4 -12 1 -19z m145 -40 c-9
-9 -12 -7 -12 12 0 19 3 21 12 12 9 -9 9 -15 0 -24z m-12 -79 c0 -6 -4 -7 -10
-4 -5 3 -10 11 -10 16 0 6 5 7 10 4 6 -3 10 -11 10 -16z m557 -421 c-3 -7 -5
-2 -5 12 0 14 2 19 5 13 2 -7 2 -19 0 -25z m-57 -150 c0 -17 -3 -28 -7 -24
-11 11 -12 67 -2 60 5 -3 9 -19 9 -36z m180 -3 c0 -8 -4 -15 -10 -15 -5 0 -10
7 -10 15 0 8 5 15 10 15 6 0 10 -7 10 -15z m-43 -37 c-3 -8 -6 -5 -6 6 -1 11
2 17 5 13 3 -3 4 -12 1 -19z m97 -4 c3 -8 2 -12 -3 -9 -5 3 -12 1 -16 -5 -4
-6 -11 -8 -16 -4 -5 3 -7 10 -3 15 3 5 10 7 15 4 5 -4 9 -1 9 4 0 16 7 13 14
-5z m-245 -48 c-9 -8 -10 -7 -5 7 3 10 7 24 7 30 1 7 3 4 6 -7 3 -10 -1 -23
-8 -30z m275 8 c5 -14 4 -15 -9 -4 -17 14 -19 20 -6 20 5 0 12 -7 15 -16z
m113 -40 c37 -30 99 -80 136 -110 72 -59 166 -176 167 -209 0 -11 7 -29 15
-39 9 -12 15 -42 15 -73 0 -71 -43 -143 -103 -172 -63 -30 -95 -35 -125 -21
-15 7 -42 20 -59 29 -55 26 -90 86 -102 175 -6 42 -8 101 -5 130 6 47 4 55
-16 69 -22 15 -24 47 -20 257 0 32 24 23 97 -36z m-227 0 c0 -8 -19 -13 -24
-6 -3 5 1 9 9 9 8 0 15 -2 15 -3z m-150 -31 c-1 -24 -2 -26 -11 -10 -5 9 -7
22 -4 27 10 17 15 11 15 -17z m-3 -75 c-3 -8 -6 -5 -6 6 -1 11 2 17 5 13 3 -3
4 -12 1 -19z m245 -128 c-12 -11 -33 -25 -47 -30 -20 -8 -25 -6 -25 6 0 8 3
13 8 11 4 -3 23 3 42 14 45 24 49 23 22 -1z m-91 -45 c5 4 9 2 9 -4 0 -5 -13
-12 -30 -16 -16 -4 -30 -10 -30 -13 0 -4 -10 -13 -22 -20 -13 -8 -8 1 12 20
19 17 36 36 36 40 3 20 7 22 11 5 2 -9 9 -15 14 -12z m-154 -237 c-3 -7 -5 -2
-5 12 0 14 2 19 5 13 2 -7 2 -19 0 -25z m-3 -34 c5 -14 4 -15 -9 -4 -17 14
-19 20 -6 20 5 0 12 -7 15 -16z m-610 -54 c-5 -5 -10 3 -11 18 -1 22 0 24 9 8
6 -10 6 -22 2 -26z m646 -31 c0 -6 -4 -7 -10 -4 -5 3 -10 11 -10 16 0 6 5 7
10 4 6 -3 10 -11 10 -16z m-115 -11 c-1 -12 -7 -23 -14 -24 -6 -1 -7 0 -1 3 5
2 8 9 4 14 -3 5 -2 14 1 19 9 15 12 12 10 -12z m-25 -2 c0 -2 -7 -7 -16 -10
-8 -3 -12 -2 -9 4 6 10 25 14 25 6z m115 -36 c-5 -14 -2 -20 9 -20 17 0 21
-12 9 -23 -6 -7 -43 40 -43 56 0 4 7 7 16 7 11 0 14 -6 9 -20z m-37 -30 c8
-16 12 -38 9 -47 -3 -16 -5 -16 -12 2 -4 11 -14 27 -20 35 -15 19 -16 50 -1
44 6 -2 17 -18 24 -34z m102 -14 c-1 -20 -2 -20 -15 4 -19 33 -19 46 0 30 8
-7 15 -22 15 -34z m-180 0 c0 -3 -4 -8 -10 -11 -5 -3 -10 -1 -10 4 0 6 5 11
10 11 6 0 10 -2 10 -4z m50 -26 c0 -16 -4 -30 -10 -30 -11 0 -14 43 -3 53 11
12 13 8 13 -23z m93 -12 c-5 -23 -5 -23 12 -3 14 17 16 17 11 3 -7 -25 9 -23
20 2 7 14 13 17 24 10 13 -8 13 -11 1 -22 -10 -10 -12 -10 -7 0 4 6 2 12 -4
12 -8 0 -10 -10 -6 -27 4 -19 3 -23 -3 -14 -7 11 -11 10 -21 -5 -11 -18 -11
-18 -6 0 5 14 3 16 -6 9 -22 -16 -43 -9 -40 12 4 18 20 45 27 45 2 0 1 -10 -2
-22z m-133 -13 c0 -8 -4 -15 -10 -15 -5 0 -10 7 -10 15 0 8 5 15 10 15 6 0 10
-7 10 -15z m-40 -16 c0 -5 -4 -9 -10 -9 -5 0 -10 7 -10 16 0 8 5 12 10 9 6 -3
10 -10 10 -16z m-303 -15 c-3 -3 -12 -4 -19 -1 -8 3 -5 6 6 6 11 1 17 -2 13
-5z"/>
<path d="M9475 9530 c-3 -5 -1 -10 4 -10 6 0 11 5 11 10 0 6 -2 10 -4 10 -3 0
-8 -4 -11 -10z"/>
<path d="M9050 7939 c0 -5 10 -9 22 -9 12 0 18 3 14 7 -10 11 -36 12 -36 2z"/>
<path d="M9155 7920 c3 -5 14 -10 23 -10 15 0 15 2 2 10 -20 13 -33 13 -25 0z"/>
<path d="M7528 7701 c-65 -13 -137 -82 -152 -146 -31 -127 -10 -204 79 -290
34 -33 91 -82 125 -109 71 -55 91 -92 79 -145 -10 -43 -32 -61 -74 -61 -39 0
-63 24 -71 71 -3 19 -11 47 -17 63 -10 28 -11 28 -70 22 -32 -3 -63 -9 -69
-12 -6 -4 -9 -33 -6 -73 11 -144 77 -212 211 -217 85 -3 160 24 151 54 -5 14
-4 14 4 2 9 -12 14 -12 31 4 12 11 21 25 21 33 0 7 4 13 9 13 16 0 41 97 41
157 0 107 -41 184 -131 249 -23 16 -56 41 -74 57 -18 15 -38 27 -43 27 -17 0
-62 72 -62 98 0 49 84 94 116 62 5 -5 15 -6 23 -1 11 7 7 13 -15 25 -16 8 -24
15 -17 16 7 0 10 7 6 16 -5 14 -3 14 16 3 19 -13 19 -14 3 -21 -14 -6 -6 -10
14 -7 8 1 24 -22 24 -33 0 -5 -7 -8 -16 -8 -13 0 -15 -7 -9 -42 4 -24 13 -49
20 -56 16 -17 115 -24 132 -10 15 12 17 64 3 73 -5 3 -10 21 -10 39 0 26 -10
43 -42 76 -23 23 -53 47 -67 54 -34 17 -117 26 -163 17z m149 -37 c-3 -3 -12
-4 -19 -1 -8 3 -5 6 6 6 11 1 17 -2 13 -5z m48 -186 c5 4 5 1 1 -6 -6 -10 -11
-10 -22 -1 -8 6 -14 17 -14 23 0 6 7 3 14 -6 7 -10 17 -14 21 -10z m-148 -263
c0 -8 -4 -12 -9 -9 -5 3 -6 10 -3 15 9 13 12 11 12 -6z m154 -318 c-10 -9 -11
-8 -5 6 3 10 9 15 12 12 3 -3 0 -11 -7 -18z m-51 -58 c-7 -11 -14 -18 -17 -15
-3 3 0 12 7 21 18 21 23 19 10 -6z m-120 -15 c0 -8 -19 -13 -24 -6 -3 5 1 9 9
9 8 0 15 -2 15 -3z"/>
<path d="M10135 7686 c-16 -8 -46 -21 -66 -29 -36 -16 -54 -34 -76 -74 -16
-29 -19 -618 -3 -628 6 -3 10 -13 10 -22 0 -17 57 -93 68 -91 4 1 18 -4 32
-10 14 -6 21 -11 15 -12 -17 -2 28 -19 53 -19 13 -1 21 3 17 8 -3 5 0 13 6 17
7 4 9 3 6 -3 -4 -6 9 -13 31 -17 51 -8 64 -8 58 3 -3 5 1 12 10 15 8 3 12 2 9
-4 -3 -6 -1 -10 4 -10 6 0 11 5 11 10 0 6 10 10 22 10 30 0 111 89 96 107 -7
9 -6 14 6 19 9 3 13 10 10 15 -3 5 -2 9 3 9 10 0 11 569 1 593 -5 9 -10 24
-13 32 -4 14 -77 65 -94 65 -5 0 -22 7 -37 15 -36 19 -139 19 -179 1z m190
-26 c3 -6 -1 -7 -9 -4 -18 7 -21 14 -7 14 6 0 13 -4 16 -10z m63 -51 c-3 -8
-7 -3 -11 10 -4 17 -3 21 5 13 5 -5 8 -16 6 -23z m-125 11 c26 -1 29 -2 15
-11 -19 -11 -65 -3 -75 14 -4 7 0 8 11 4 10 -4 32 -7 49 -7z m-73 -10 c0 -5
-7 -7 -15 -4 -8 4 -15 8 -15 10 0 2 7 4 15 4 8 0 15 -4 15 -10z m106 -27 c-10
-10 -46 -11 -40 -1 3 4 15 8 26 8 12 0 18 -3 14 -7z m18 -22 c3 -5 -1 -11 -9
-14 -9 -4 -12 -1 -8 9 6 16 10 17 17 5z m-37 -25 l29 -25 -2 -262 c-2 -262 -2
-263 -26 -281 -30 -23 -80 -23 -108 0 -23 19 -23 19 -21 288 2 259 2 270 22
287 30 24 72 21 106 -7z m-253 -52 c3 -8 2 -12 -4 -9 -6 3 -10 10 -10 16 0 14
7 11 14 -7z m19 -72 c-3 -12 -9 -22 -14 -22 -5 0 -3 11 3 25 13 30 20 28 11
-3z"/>
<path d="M8106 7670 l-209 -5 -1 -45 c-3 -79 5 -89 71 -92 47 -2 59 -7 68 -24
l11 -22 11 24 c9 20 8 26 -5 34 -14 8 -13 9 7 10 20 0 21 2 11 15 -10 12 -10
15 3 15 15 0 27 -35 19 -58 -2 -7 -10 -12 -18 -12 -13 0 -13 -3 0 -22 14 -19
14 -23 -2 -35 -16 -12 -16 -14 2 -28 17 -13 15 -19 -6 -16 -20 2 -27 -78 -25
-294 1 -129 -1 -235 -4 -235 -13 0 -3 -37 14 -54 14 -14 23 -16 45 -8 15 5 37
6 50 1 12 -5 33 -4 47 1 l25 10 2 347 c0 192 1 354 1 361 -1 6 3 12 8 12 5 0
9 -4 9 -8 0 -12 104 -10 112 2 4 6 8 34 8 63 0 42 -4 54 -19 63 -11 5 -21 9
-23 8 -2 -1 -97 -5 -212 -8z m41 -72 c-3 -8 -6 -5 -6 6 -1 11 2 17 5 13 3 -3
4 -12 1 -19z m107 -37 c-6 -6 -24 19 -24 34 1 6 7 1 15 -9 8 -11 12 -22 9 -25z
m-79 19 c-3 -5 -12 -10 -18 -10 -7 0 -6 4 3 10 19 12 23 12 15 0z m145 -11 c0
-5 -4 -9 -10 -9 -5 0 -10 7 -10 16 0 8 5 12 10 9 6 -3 10 -10 10 -16z m-125
-28 c-3 -12 -10 -21 -15 -21 -4 0 -3 11 3 24 14 29 22 27 12 -3z m-65 -18 c0
-14 -3 -23 -7 -19 -10 10 -11 46 -1 46 4 0 8 -12 8 -27z m63 -30 c-3 -7 0 -13
6 -13 6 0 11 -10 10 -22 l0 -23 -9 21 c-5 12 -13 25 -19 29 -15 9 -14 22 3 22
8 0 12 -6 9 -14z m-60 -60 c-7 -2 -13 -12 -13 -20 0 -9 -3 -14 -6 -10 -10 10
4 37 18 36 10 0 10 -2 1 -6z m4 -49 c-3 -3 -12 -4 -19 -1 -8 3 -5 6 6 6 11 1
17 -2 13 -5z"/>
<path d="M8511 7671 l-53 -6 1 -348 c0 -214 5 -355 11 -367 5 -10 10 -27 10
-38 0 -20 39 -62 58 -62 7 0 12 -4 12 -10 0 -5 11 -10 25 -10 14 0 25 -5 25
-11 0 -6 7 -9 15 -5 8 3 15 2 15 -2 0 -4 34 -8 75 -8 41 0 72 3 69 8 -3 4 1 5
9 2 18 -7 107 46 107 64 0 7 7 15 15 18 8 4 15 14 15 23 0 9 6 23 13 30 9 9
12 84 12 304 0 247 -2 294 -15 305 -13 10 -13 11 3 6 15 -5 17 1 17 49 0 35
-5 56 -12 59 -7 3 -46 3 -85 0 l-73 -4 0 -334 c0 -389 1 -384 -81 -384 -81 0
-79 -8 -79 381 l0 337 -22 6 c-13 3 -25 5 -28 4 -3 -1 -29 -4 -59 -7z m238
-805 c-12 -26 -29 -35 -29 -16 0 6 4 10 9 10 5 0 13 9 16 21 4 11 9 18 11 16
3 -2 -1 -16 -7 -31z m105 5 c-5 -6 -9 -7 -35 -10 -5 0 -7 -6 -3 -13 5 -7 3 -8
-6 -3 -10 6 -10 10 3 20 16 12 52 17 41 6z m-234 -11 c0 -5 -2 -10 -4 -10 -3
0 -8 5 -11 10 -3 6 -1 10 4 10 6 0 11 -4 11 -10z m87 -22 c-3 -8 -6 -5 -6 6
-1 11 2 17 5 13 3 -3 4 -12 1 -19z m-37 -18 c0 -5 -8 -10 -17 -10 -15 0 -16 2
-3 10 19 12 20 12 20 0z"/>
<path d="M9080 7663 c-1 -5 -1 -189 0 -410 1 -317 -2 -402 -12 -405 -9 -3 -8
-9 5 -22 16 -17 27 -17 125 -7 59 6 134 11 168 11 78 0 154 35 154 71 0 7 7
20 16 30 12 14 14 24 7 46 -7 19 -5 42 4 72 15 51 19 436 4 427 -5 -4 -7 4 -3
16 5 21 4 22 -11 9 -22 -17 -22 -7 -1 14 15 15 15 17 -2 31 -17 12 -17 13 -1
8 30 -11 20 29 -15 63 -18 17 -48 35 -67 42 -38 12 -371 16 -371 4z m385 -33
c3 -5 1 -10 -4 -10 -6 0 -11 5 -11 10 0 6 2 10 4 10 3 0 8 -4 11 -10z m-205
-20 c0 -5 -7 -10 -15 -10 -8 0 -15 5 -15 10 0 6 7 10 15 10 8 0 15 -4 15 -10z
m72 -30 c17 0 18 -2 8 -15 -11 -13 -9 -19 11 -33 13 -9 27 -16 31 -15 3 1 4
-16 1 -37 -4 -26 -2 -40 6 -40 6 0 11 -7 11 -15 0 -8 -4 -15 -10 -15 -6 0 -10
-75 -10 -205 0 -201 0 -205 -22 -219 -13 -8 -42 -18 -65 -22 -40 -6 -43 -5
-43 17 -5 600 -7 577 50 580 23 1 23 2 -5 9 -16 4 -22 8 -13 9 12 1 16 7 12
19 -5 16 -5 16 6 0 6 -10 20 -18 32 -18z m-105 4 c-3 -3 -12 -4 -19 -1 -8 3
-5 6 6 6 11 1 17 -2 13 -5z m-13 -37 c4 4 4 0 0 -10 -3 -9 -10 -17 -15 -17 -4
0 -6 -7 -3 -15 4 -8 1 -15 -5 -15 -6 0 -11 7 -11 15 0 8 -4 15 -8 15 -4 0 -8
9 -8 19 0 11 4 17 8 15 4 -3 8 3 8 13 1 15 3 14 13 -5 7 -12 16 -19 21 -15z
m197 1 c12 3 12 -15 -1 -23 -5 -3 -10 -1 -10 4 0 6 -7 11 -16 11 -8 0 -12 5
-9 10 3 6 1 10 -5 10 -6 0 -8 5 -4 12 5 7 11 5 21 -8 8 -10 19 -18 24 -16z
m28 -39 c-25 -16 -32 -9 -13 12 12 13 20 16 22 9 3 -7 -2 -16 -9 -21z m46 -19
c3 -5 1 -10 -4 -10 -6 0 -11 5 -11 10 0 6 2 10 4 10 3 0 8 -4 11 -10z m-88
-32 c-3 -7 -5 -2 -5 12 0 14 2 19 5 13 2 -7 2 -19 0 -25z m-272 12 c3 -5 -1
-10 -10 -10 -9 0 -13 5 -10 10 3 6 8 10 10 10 2 0 7 -4 10 -10z m54 -11 c-22
-14 -33 -10 -19 6 7 8 17 12 22 9 6 -4 5 -10 -3 -15z m6 -28 c-3 -6 -16 -11
-28 -11 -21 0 -21 1 3 13 27 15 36 14 25 -2z m212 -63 c-3 -8 -6 -5 -6 6 -1
11 2 17 5 13 3 -3 4 -12 1 -19z m-217 -38 c0 -5 -2 -10 -4 -10 -3 0 -8 5 -11
10 -3 6 -1 10 4 10 6 0 11 -4 11 -10z m217 -52 c-3 -8 -6 -5 -6 6 -1 11 2 17
5 13 3 -3 4 -12 1 -19z m-217 -18 c0 -5 -4 -10 -10 -10 -5 0 -10 5 -10 10 0 6
5 10 10 10 6 0 10 -4 10 -10z m-2 -45 c0 -15 -6 -25 -14 -25 -17 0 -17 5 -4
31 14 25 18 24 18 -6z m2 -51 c0 -8 -5 -12 -10 -9 -6 4 -8 11 -5 16 9 14 15
11 15 -7z m-5 -44 c3 -6 -1 -7 -9 -4 -18 7 -21 14 -7 14 6 0 13 -4 16 -10z"/>
<path d="M9682 7243 l3 -428 68 -3 c38 -2 74 2 81 7 9 8 12 46 10 138 -6 304
-6 605 0 610 3 4 6 28 6 55 l0 48 -85 0 -85 0 2 -427z m43 407 c3 -5 -1 -10
-10 -10 -9 0 -13 5 -10 10 3 6 8 10 10 10 2 0 7 -4 10 -10z m-18 -42 c-3 -8
-6 -5 -6 6 -1 11 2 17 5 13 3 -3 4 -12 1 -19z m64 -11 c-10 -9 -11 -8 -5 6 3
10 9 15 12 12 3 -3 0 -11 -7 -18z m-59 -70 c-9 -18 -24 12 -16 34 l8 24 6 -25
c4 -14 5 -29 2 -33z m68 17 c0 -2 -7 -4 -15 -4 -8 0 -15 4 -15 10 0 5 7 7 15
4 8 -4 15 -8 15 -10z m-2 -43 c3 -8 -1 -12 -9 -9 -7 2 -15 10 -17 17 -3 8 1
12 9 9 7 -2 15 -10 17 -17z m-68 -12 c8 -15 8 -24 1 -33 -6 -8 -9 -21 -5 -30
3 -9 1 -16 -5 -16 -8 0 -11 18 -10 50 2 28 4 50 5 50 2 0 8 -9 14 -21z m60
-19 c0 -5 8 -10 18 -11 10 0 12 -3 5 -6 -7 -2 -13 -13 -13 -24 0 -36 -26 -20
-27 16 -1 19 3 35 8 35 5 0 9 -4 9 -10z m-33 -37 c-3 -10 -5 -4 -5 12 0 17 2
24 5 18 2 -7 2 -21 0 -30z m-7 -32 c0 -5 -9 -11 -20 -14 -11 -3 -20 -1 -20 3
0 5 8 11 18 13 9 3 18 5 20 6 1 0 2 -3 2 -8z m45 -21 c3 -5 1 -10 -5 -10 -8 0
-7 -6 1 -21 8 -15 8 -24 0 -32 -8 -8 -11 -7 -12 4 0 7 -3 26 -5 42 -5 26 9 37
21 17z m-4 -93 c-1 -4 -1 -19 -1 -34 0 -33 -5 -28 -13 15 -5 22 -3 32 4 30 6
-2 10 -7 10 -11z m2 -117 c-3 -11 -7 -20 -8 -20 -1 0 -5 9 -8 20 -3 12 0 20 8
20 8 0 11 -8 8 -20z"/>
</g>
</svg>
